<?xml version="1.0" encoding="UTF-8"?><svg id="Layer_1" xmlns="http://www.w3.org/2000/svg" viewBox="0 0 50.48 66.25"><defs><style>.cls-1{fill:#231815;}</style></defs><path class="cls-1" d="M20.72,8.64c9.77,5.5,.88,25.31-9.51,23.08-3.81-.93-4.29-6.4-1.46-8.63-3.57,2.18-5.72,6.05-6.63,10.01C-.08,51.24,11.36,64.96,30.14,62.11c12.25-1.99,19.98-14.67,18-26.98,.2,1.32,.19,2.81-.33,4.15-.5,1.5-2.42,2.1-3.79,1.32-.75-.42-.9-1.37-.85-2.13,.19-2.11,.91-4.09,1.32-6.13,1.41-5.32,.82-10.86-1.56-15.77-2.14-4.93-6.1-9.17-11.48-10.36-2.63-.64-5.38-.63-8.12-.31-1.42,.12-3.06-.05-4.07-1.22-.95-1.14-.84-3.11,.36-4,0,0,.05,.08,.05,.08-.65,.63-1.21,1.31-1.51,2.07-.96,2.27,.53,4.73,2.57,5.81h0Zm-.81,1.51c-2.7-1.35-4.43-5.1-2.54-7.75,.58-.81,1.38-1.38,2.23-1.72,0,0,.05,.08,.05,.08-.8,.95-.79,2.65-.01,3.58,.85,.94,2.31,1.11,3.61,.97,11.38-2.02,19.19,3.83,22.31,14.68,1.26,4.08,.95,8.54-.12,12.59-.49,2-1.3,3.93-1.58,5.95-.27,1.55,.95,2.07,2.25,1.82,2.02-.67,1.99-3.43,2.03-5.22,4.91,12.42-3.76,28.23-17.42,30.31C13.26,68.32-.41,57.06,.61,39.11c.24-6.3,3.07-13.35,9.14-16.02-2.28,2.32-1.81,7.07,1.67,7.78,8.69,1.59,16.65-16.13,8.49-20.72h0Z"/><path class="cls-1" d="M13.39,22.97c.09-.86-.26-1.59-.48-2.39-.43-1.16-.6-2.93,.85-3.57,.87-.62,1.13-1.95,1.35-2.97,0,0,.12-.66,.12-.66,1.86,1.24,2.29,3.64,1.58,5.61-.65,1.74-1.99,2.91-3.42,3.99h0Zm.03-.04c1.92-2.23,4.39-5.9,1.85-8.52,0,0,.62-.24,.62-.24-.32,1.26-.59,2.72-1.81,3.47-1.68,.65-.76,2.72-.6,4.08,.05,.4,.1,.87-.05,1.22h0Z"/></svg>