<?xml version="1.0" encoding="UTF-8"?><svg id="Layer_1" xmlns="http://www.w3.org/2000/svg" viewBox="0 0 383 629.65"><defs><style>.cls-1{fill:#f7f8f8;}.cls-2{fill:#9fa0a0;}.cls-3{fill:#9298af;}.cls-4{fill:#b9bccb;}.cls-5{fill:#c9caca;}.cls-6{fill:#cb5547;}.cls-7{fill:#233764;}</style></defs><g><path class="cls-2" d="M191.5,235.32c-54.43,0-98.71-44.28-98.71-98.71s44.28-98.71,98.71-98.71,98.71,44.28,98.71,98.71-44.28,98.71-98.71,98.71Zm0-194.54c-52.84,0-95.83,42.99-95.83,95.83s42.99,95.83,95.83,95.83,95.83-42.99,95.83-95.83-42.99-95.83-95.83-95.83Z"/><g><circle class="cls-1" cx="191.5" cy="136.59" r="82.19"/><g><rect class="cls-5" x="191.36" y="54.4" width=".27" height="164.38"/><polygon class="cls-5" points="204.34 217.77 178.39 55.45 178.66 55.41 204.61 217.72 204.34 217.77"/><polygon class="cls-5" points="216.99 214.72 165.75 58.54 166.01 58.45 217.25 214.64 216.99 214.72"/><polygon class="cls-5" points="229 209.72 153.76 63.58 154 63.45 229.24 209.6 229 209.72"/><polygon class="cls-5" points="240.07 202.89 142.71 70.45 142.93 70.29 240.29 202.72 240.07 202.89"/><polygon class="cls-5" points="249.93 194.39 132.88 78.98 133.07 78.79 250.12 194.2 249.93 194.39"/><polygon class="cls-5" points="258.32 184.44 124.52 88.95 124.68 88.73 258.48 184.22 258.32 184.44"/><polygon class="cls-5" points="265.03 173.3 117.84 100.12 117.96 99.88 265.15 173.05 265.03 173.3"/><rect class="cls-5" x="191.36" y="54.4" width=".27" height="164.38" transform="translate(4.01 278.63) rotate(-72.65)"/><rect class="cls-5" x="191.36" y="54.4" width=".27" height="164.38" transform="translate(28.78 306.44) rotate(-81.73)"/><polygon class="cls-5" points="109.32 137.88 109.32 137.61 273.68 135.29 273.68 135.56 109.32 137.88"/><rect class="cls-5" x="109.31" y="136.45" width="164.38" height=".27" transform="translate(-20.64 34.97) rotate(-9.9)"/><rect class="cls-5" x="109.31" y="136.45" width="164.38" height=".27" transform="translate(-33.95 69.51) rotate(-18.93)"/><polygon class="cls-5" points="119.03 175.36 118.9 175.12 263.97 97.82 264.1 98.06 119.03 175.36"/><polygon class="cls-5" points="126.06 186.31 125.89 186.09 256.94 86.87 257.1 87.08 126.06 186.31"/><polygon class="cls-5" points="134.73 196.02 134.53 195.83 248.27 77.16 248.47 77.35 134.73 196.02"/><polygon class="cls-5" points="144.82 204.23 144.59 204.08 238.18 68.94 238.41 69.1 144.82 204.23"/><polygon class="cls-5" points="156.08 210.75 155.83 210.63 226.92 62.42 227.17 62.54 156.08 210.75"/><polygon class="cls-5" points="168.23 215.41 167.97 215.33 214.77 57.76 215.03 57.84 168.23 215.41"/><polygon class="cls-5" points="179.81 217.94 179.54 217.9 203.19 55.24 203.46 55.27 179.81 217.94"/></g><g><path class="cls-4" d="M217.23,168.97h-2.93l5.21,14.44c.16,.45,.1,.94-.18,1.33-.28,.39-.71,.62-1.19,.62h-37.01c-.48,0-.92-.23-1.19-.62-.28-.39-.34-.88-.18-1.33l5.21-14.44h-2.93l-4.87,13.51c-.67,1.86,.03,4.03,1.91,5.12,.64,.37,1.38,.53,2.11,.53h36.95c1.98,0,3.79-1.4,4.17-3.54,.13-.73,.03-1.48-.23-2.17l-4.85-13.44Z"/><path class="cls-4" d="M215.36,143.8h-25.41l-11.39-49.45c-1.2-5.22-5.85-8.93-11.22-8.93-7.4,0-12.88,6.88-11.22,14.09l13.47,58.46s.01,.05,.02,.08l.09,.37c.04,.18,.1,.35,.14,.52,.02,.07,.04,.14,.06,.22,1.01,3.35,3.46,5.99,6.58,7.29,.09,.04,.19,.08,.28,.11,.16,.06,.33,.12,.49,.18,1.23,.43,2.54,.68,3.91,.68h34.2c6.52,0,11.81-5.29,11.81-11.81s-5.29-11.81-11.81-11.81Z"/><path class="cls-4" d="M211.52,126.01h-24.09l2.42,10.51h21.67c2.9,0,5.26-2.35,5.26-5.26s-2.35-5.26-5.26-5.26Z"/></g><g><path class="cls-7" d="M191.5,218.84c20.45,0,39.13-7.48,53.52-19.83-39.23,18.57-37.94,2.5-37.94,2.5-2.56,9.48-11.72,16.4-34.58,10.65-10.57-2.66-16.41-12.03-8.04-14.06,7.69-1.86,2.26-9.56,1.7-11.18,.01,1.66,2.52,7.4-9.5,8.7-7.71,.84-16.67-1.11-24.75-7.86-6.25-5.22-7.02-12.36-3.76-12.41,4.91-.09,5.72-4.11,5.72-4.11-8.32,6.78-10.87-18.41,.33-9.74,0,0-19.67-21.18-17.09-44.78,3.89-35.61,36.35-52.69,37.72-53.69-.88,.44-1.76,.89-2.64,1.36-25.56,13.95-42.91,41.06-42.91,72.23,0,45.41,36.81,82.23,82.23,82.23Z"/><path class="cls-7" d="M173.06,188.43c0-.2,0-.33,0-.33-.06,.05-.05,.16,0,.33Z"/></g><path class="cls-7" d="M191.17,54.38c-18.01,0-31.56,3.91-45.13,13.7,2.36-1.49,15.11-9.41,16.49-4.37,1.49,5.45,4.57,2.56,5.5,6.94,0,0,.45-3.15-2.29-6.94-2.74-3.79,1.23-4.81,2.32-3.32,1.09,1.49,5.08,2.84,11.73-1.59,4.2-2.8,6.51-1.42,6.34,.19-.12,1.12,.69,1.06,.69,1.06,0,0-.15-.13,0-.77,.25-1.07,2.37-1.81,1.3-2.83-.76-.72-.41-1.43,1.12-.79,1.21,.51,3.71,1.72,4.89,1.31,0,0-.88-.73,1.02-.89,2.29-.19,6.13,0,9.29,.77,.49,.12-8.17-2.02-10.16-2.3-1.37-.19-3.11-.17-3.11-.17Z"/><path class="cls-7" d="M246.98,90.17c10.58,30.18-2.88,45.42-11.46,39.48,0,0,1.88,6.58,13.23,4.73,16.89-2.75,1.85,32.33,5.91,36.44,0,0-.87-5.03,2.78-3.94,3.33,.99,6.21,8.43-3.55,23.26,12.36-14.39,19.84-33.08,19.84-53.53,0-45.41-36.82-82.23-82.23-82.23,0,0,44.31,3.91,55.48,35.79Z"/><path class="cls-7" d="M260.27,176.07s-1.02,6.35-5.86,7.12c-3.61,.58-2.73-1.41-10.92-4.97,0,0,5.22,2.25,5.26,6.54,.03,2.62-1.1,7.21-5.74,12.05-3.17,3.3-8.23,5.57-9.56,5.65-3.32,.2-.84-1.3-3.39-1.95,1.09,.55,.29,4.71-10.43,7.22,2.72-.23,9.3-.87,15.33-1.33,10.44-6.59,19.5-15.36,26.01-25.85l-.7-4.47Z"/></g></g><g><g><path class="cls-7" d="M147.08,317.04c2.86,1.61,.26,7.42-2.79,6.77-1.12-.27-1.26-1.88-.43-2.53-1.05,.64-1.68,1.77-1.94,2.93-.94,5.32,2.41,9.34,7.92,8.51,3.59-.58,5.86-4.3,5.28-7.91,.06,.39,.06,.83-.1,1.22-.15,.44-.71,.62-1.11,.39-.22-.12-.27-.4-.25-.63,.05-.62,.27-1.2,.39-1.8,.41-1.56,.24-3.18-.46-4.63-.63-1.45-1.79-2.69-3.37-3.04-.77-.19-1.58-.18-2.38-.09-.42,.03-.9-.01-1.19-.36-.28-.33-.25-.91,.1-1.17,0,0,.02,.02,.02,.02-.19,.19-.35,.38-.44,.61-.28,.67,.16,1.39,.75,1.7h0Zm-.24,.44c-.79-.4-1.3-1.5-.74-2.27,.17-.24,.4-.4,.65-.5,0,0,.02,.02,.02,.02-.24,.28-.23,.78,0,1.05,.25,.28,.68,.33,1.06,.29,3.34-.59,5.63,1.12,6.54,4.3,.37,1.2,.28,2.5-.04,3.69-.14,.59-.38,1.15-.46,1.74-.08,.46,.28,.61,.66,.53,.59-.2,.58-1,.6-1.53,1.44,3.64-1.1,8.28-5.11,8.89-5.12,.84-9.13-2.46-8.83-7.72,.07-1.85,.9-3.92,2.68-4.7-.67,.68-.53,2.07,.49,2.28,2.55,.47,4.88-4.73,2.49-6.07h0Z"/><path class="cls-7" d="M144.93,321.24c.03-.25-.08-.47-.14-.7-.13-.34-.18-.86,.25-1.05,.26-.18,.33-.57,.4-.87,0,0,.04-.19,.04-.19,.55,.36,.67,1.07,.46,1.64-.19,.51-.58,.85-1,1.17h0Zm0-.01c.56-.66,1.29-1.73,.54-2.5,0,0,.18-.07,.18-.07-.09,.37-.17,.8-.53,1.02-.49,.19-.22,.8-.18,1.2,.01,.12,.03,.26-.02,.36h0Z"/></g><g><path class="cls-7" d="M169.01,319.42c.46-.14,.9-.31,1.33-.53,.43-.22,.81-.48,1.16-.79,.35-.31,.66-.66,.92-1.07h1.04l-3.23,15.09h-1.36l2.67-12.53c-.66,.35-1.34,.6-2.04,.78-.7,.17-1.41,.32-2.15,.43l.28-1.08c.46-.07,.92-.18,1.38-.31Z"/><path class="cls-7" d="M178.73,330.21c.55,.73,1.41,1.1,2.59,1.1,.56,0,1.08-.09,1.57-.27,.49-.18,.92-.44,1.29-.77,.37-.33,.67-.73,.88-1.18,.22-.46,.32-.97,.32-1.53,0-.52-.09-.95-.27-1.3-.18-.35-.42-.64-.73-.86-.31-.22-.66-.38-1.07-.47-.4-.09-.83-.14-1.29-.14h-.73l.24-1.14h.88c.46,0,.92-.04,1.39-.11,.47-.07,.89-.22,1.26-.43,.37-.22,.67-.52,.91-.91,.23-.39,.35-.89,.35-1.51,0-.43-.08-.81-.25-1.14s-.38-.6-.65-.82c-.26-.22-.57-.38-.93-.5-.35-.11-.72-.17-1.11-.17-1.12,0-1.99,.32-2.6,.97-.61,.65-1,1.52-1.17,2.61h-1.36c.26-1.44,.81-2.58,1.65-3.44,.84-.85,2.02-1.28,3.53-1.28,.56,0,1.1,.08,1.61,.24,.51,.16,.96,.39,1.36,.7,.4,.31,.71,.7,.94,1.16,.23,.47,.35,1.01,.35,1.63,0,.47-.08,.92-.24,1.33-.16,.41-.38,.77-.66,1.08-.28,.31-.61,.57-1,.77-.39,.21-.81,.36-1.27,.44v.04c.75,.19,1.31,.57,1.68,1.14,.37,.58,.56,1.25,.56,2.03s-.15,1.49-.44,2.11c-.29,.62-.69,1.14-1.19,1.56s-1.06,.74-1.7,.96c-.64,.22-1.31,.32-1.99,.32-.88,0-1.63-.12-2.25-.37s-1.13-.59-1.51-1.05-.65-.99-.82-1.62-.23-1.31-.2-2.06h1.36c-.06,1.18,.19,2.14,.73,2.87Z"/><path class="cls-7" d="M191.08,331.96c-.53-.32-.95-.74-1.26-1.26-.31-.53-.53-1.12-.66-1.79s-.19-1.35-.19-2.04c0-.63,.05-1.32,.16-2.06,.11-.74,.28-1.48,.52-2.21s.53-1.45,.88-2.13c.35-.69,.78-1.3,1.27-1.82,.5-.53,1.06-.95,1.69-1.26,.63-.32,1.34-.47,2.11-.47s1.48,.14,2.03,.42c.55,.28,.98,.66,1.31,1.15,.33,.49,.57,1.05,.71,1.68,.14,.63,.22,1.31,.22,2.03,0,.68-.05,1.4-.16,2.17s-.27,1.54-.5,2.3c-.22,.76-.51,1.49-.87,2.19-.36,.7-.79,1.31-1.29,1.84-.5,.53-1.08,.96-1.74,1.27-.65,.32-1.4,.47-2.23,.47s-1.47-.16-2.01-.47Zm7.31-11.4c-.09-.47-.25-.9-.47-1.27-.23-.37-.54-.67-.94-.89-.39-.22-.9-.34-1.52-.34s-1.17,.16-1.66,.49c-.49,.32-.93,.75-1.31,1.28s-.71,1.13-.98,1.79c-.27,.66-.5,1.34-.67,2.03s-.3,1.35-.39,1.99-.13,1.2-.13,1.67c0,.52,.05,1.02,.14,1.5,.09,.48,.26,.91,.5,1.28,.24,.37,.55,.67,.95,.9,.4,.22,.9,.33,1.5,.33s1.17-.16,1.67-.48,.93-.75,1.31-1.27c.38-.52,.71-1.12,.97-1.79,.27-.67,.49-1.35,.66-2.04,.17-.69,.3-1.36,.38-2s.12-1.21,.12-1.68c0-.52-.04-1.01-.13-1.49Z"/><path class="cls-7" d="M200.96,333.88c.16-.15,.29-.31,.4-.49s.2-.38,.27-.6c.07-.22,.14-.44,.19-.66h-.91l.52-2.28h1.81l-.71,3c-.09,.35-.19,.64-.32,.87s-.28,.44-.46,.62c-.18,.17-.4,.32-.66,.43-.26,.12-.56,.22-.91,.3l.17-.86c.25-.07,.45-.18,.6-.32Z"/><path class="cls-7" d="M209.06,331.96c-.53-.32-.95-.74-1.26-1.26-.31-.53-.53-1.12-.66-1.79s-.19-1.35-.19-2.04c0-.63,.05-1.32,.16-2.06,.11-.74,.28-1.48,.52-2.21s.53-1.45,.88-2.13c.35-.69,.78-1.3,1.27-1.82,.5-.53,1.06-.95,1.69-1.26,.63-.32,1.34-.47,2.11-.47s1.48,.14,2.03,.42c.55,.28,.98,.66,1.31,1.15,.33,.49,.57,1.05,.71,1.68,.14,.63,.22,1.31,.22,2.03,0,.68-.05,1.4-.16,2.17s-.27,1.54-.5,2.3c-.22,.76-.51,1.49-.87,2.19-.36,.7-.79,1.31-1.29,1.84-.5,.53-1.08,.96-1.74,1.27-.65,.32-1.4,.47-2.23,.47s-1.47-.16-2.01-.47Zm7.31-11.4c-.09-.47-.25-.9-.47-1.27-.23-.37-.54-.67-.94-.89-.39-.22-.9-.34-1.52-.34s-1.17,.16-1.66,.49c-.49,.32-.93,.75-1.31,1.28s-.71,1.13-.98,1.79c-.27,.66-.5,1.34-.67,2.03s-.3,1.35-.39,1.99-.13,1.2-.13,1.67c0,.52,.05,1.02,.14,1.5,.09,.48,.26,.91,.5,1.28,.24,.37,.55,.67,.95,.9,.4,.22,.9,.33,1.5,.33s1.17-.16,1.67-.48,.93-.75,1.31-1.27c.38-.52,.71-1.12,.97-1.79,.27-.67,.49-1.35,.66-2.04,.17-.69,.3-1.36,.38-2s.12-1.21,.12-1.68c0-.52-.04-1.01-.13-1.49Z"/><path class="cls-7" d="M221.05,331.96c-.53-.32-.95-.74-1.26-1.26-.31-.53-.53-1.12-.66-1.79s-.19-1.35-.19-2.04c0-.63,.05-1.32,.16-2.06,.11-.74,.28-1.48,.52-2.21,.24-.73,.53-1.45,.88-2.13,.35-.69,.78-1.3,1.27-1.82,.5-.53,1.06-.95,1.69-1.26,.63-.32,1.34-.47,2.11-.47s1.48,.14,2.03,.42c.55,.28,.98,.66,1.32,1.15,.33,.49,.57,1.05,.71,1.68,.14,.63,.22,1.31,.22,2.03,0,.68-.05,1.4-.16,2.17s-.27,1.54-.5,2.3c-.22,.76-.51,1.49-.87,2.19-.36,.7-.79,1.31-1.29,1.84-.5,.53-1.08,.96-1.74,1.27-.65,.32-1.4,.47-2.23,.47s-1.47-.16-2-.47Zm7.31-11.4c-.09-.47-.25-.9-.47-1.27s-.54-.67-.94-.89c-.4-.22-.9-.34-1.52-.34s-1.17,.16-1.66,.49c-.49,.32-.92,.75-1.3,1.28s-.71,1.13-.98,1.79c-.27,.66-.5,1.34-.67,2.03s-.3,1.35-.39,1.99-.13,1.2-.13,1.67c0,.52,.05,1.02,.14,1.5,.09,.48,.26,.91,.5,1.28,.24,.37,.55,.67,.95,.9,.39,.22,.89,.33,1.5,.33s1.17-.16,1.67-.48,.94-.75,1.32-1.27c.38-.52,.7-1.12,.97-1.79,.26-.67,.48-1.35,.66-2.04,.17-.69,.3-1.36,.38-2,.08-.65,.12-1.21,.12-1.68,0-.52-.04-1.01-.13-1.49Z"/><path class="cls-7" d="M233.04,331.96c-.53-.32-.95-.74-1.26-1.26-.31-.53-.53-1.12-.66-1.79s-.19-1.35-.19-2.04c0-.63,.05-1.32,.16-2.06,.11-.74,.28-1.48,.52-2.21,.24-.73,.53-1.45,.88-2.13,.35-.69,.78-1.3,1.27-1.82,.5-.53,1.06-.95,1.69-1.26,.63-.32,1.34-.47,2.11-.47s1.48,.14,2.03,.42c.55,.28,.98,.66,1.32,1.15,.33,.49,.57,1.05,.71,1.68,.14,.63,.22,1.31,.22,2.03,0,.68-.05,1.4-.16,2.17s-.27,1.54-.5,2.3c-.22,.76-.51,1.49-.87,2.19-.36,.7-.79,1.31-1.29,1.84-.5,.53-1.08,.96-1.74,1.27-.65,.32-1.4,.47-2.23,.47s-1.47-.16-2-.47Zm7.31-11.4c-.09-.47-.25-.9-.47-1.27s-.54-.67-.94-.89c-.4-.22-.9-.34-1.52-.34s-1.17,.16-1.66,.49c-.49,.32-.92,.75-1.3,1.28s-.71,1.13-.98,1.79c-.27,.66-.5,1.34-.67,2.03s-.3,1.35-.39,1.99-.13,1.2-.13,1.67c0,.52,.05,1.02,.14,1.5,.09,.48,.26,.91,.5,1.28,.24,.37,.55,.67,.95,.9,.39,.22,.89,.33,1.5,.33s1.17-.16,1.67-.48,.94-.75,1.32-1.27c.38-.52,.7-1.12,.97-1.79,.26-.67,.48-1.35,.66-2.04,.17-.69,.3-1.36,.38-2,.08-.65,.12-1.21,.12-1.68,0-.52-.04-1.01-.13-1.49Z"/></g></g><g><path class="cls-7" d="M170.67,266.34h2.05v-1.04c0-.78,.1-1.42,.29-1.91,.19-.49,.45-.87,.77-1.13,.32-.26,.69-.44,1.1-.53s.84-.13,1.29-.13c.88,0,1.53,.06,1.93,.17v2.15c-.18-.05-.36-.08-.56-.11-.2-.02-.44-.04-.71-.04-.37,0-.69,.09-.95,.27-.27,.18-.4,.52-.4,1.04v1.28h2.34v2.05h-2.34v10.41h-2.75v-10.41h-2.05v-2.05Z"/><path class="cls-7" d="M179.56,261.6h2.75v2.6h-2.75v-2.6Zm0,4.75h2.75v12.46h-2.75v-12.46Z"/><path class="cls-7" d="M185.3,266.34h2.58v2.41h.05c.08-.34,.24-.67,.47-.99s.51-.61,.84-.88c.33-.27,.7-.48,1.1-.64,.4-.16,.81-.24,1.23-.24,.32,0,.54,0,.66,.03,.12,.02,.25,.03,.37,.05v2.65c-.19-.03-.39-.06-.59-.09-.2-.02-.4-.04-.59-.04-.46,0-.9,.09-1.31,.28s-.77,.46-1.07,.82c-.31,.36-.55,.81-.72,1.34-.18,.53-.26,1.14-.26,1.83v5.93h-2.75v-12.46Z"/><path class="cls-7" d="M195.85,274.8c.08,.8,.39,1.36,.92,1.69s1.16,.48,1.9,.48c.26,0,.55-.02,.88-.06,.33-.04,.64-.12,.93-.23,.29-.11,.53-.27,.71-.49s.27-.5,.25-.86c-.02-.35-.15-.64-.39-.87-.24-.22-.55-.4-.93-.54-.38-.14-.81-.25-1.29-.35-.48-.1-.97-.2-1.47-.31-.51-.11-1.01-.25-1.48-.41-.47-.16-.9-.38-1.28-.65-.38-.27-.68-.62-.9-1.05-.22-.42-.34-.95-.34-1.58,0-.67,.16-1.24,.49-1.7,.33-.46,.75-.83,1.25-1.11,.51-.28,1.07-.48,1.69-.59,.62-.11,1.21-.17,1.77-.17,.64,0,1.25,.07,1.84,.21,.59,.14,1.12,.36,1.59,.66,.47,.3,.87,.7,1.18,1.19,.31,.49,.51,1.08,.59,1.77h-2.87c-.13-.66-.43-1.1-.9-1.33-.47-.23-1.02-.34-1.63-.34-.19,0-.42,.02-.69,.05-.26,.03-.51,.09-.75,.18s-.43,.22-.59,.38-.24,.39-.24,.66c0,.34,.12,.61,.35,.82,.23,.21,.54,.38,.92,.52,.38,.14,.81,.25,1.29,.35,.48,.1,.98,.2,1.49,.31,.5,.11,.99,.25,1.47,.41,.48,.16,.91,.38,1.29,.65,.38,.27,.68,.62,.92,1.04,.23,.42,.35,.93,.35,1.54,0,.74-.17,1.36-.51,1.88s-.78,.93-1.31,1.25c-.54,.32-1.14,.55-1.8,.7-.66,.14-1.31,.22-1.95,.22-.79,0-1.51-.09-2.18-.26s-1.25-.45-1.74-.81c-.49-.36-.87-.81-1.15-1.35-.28-.54-.43-1.18-.45-1.92h2.75Z"/><path class="cls-7" d="M205.03,266.34h2.07v-3.74h2.75v3.74h2.48v2.05h-2.48v6.65c0,.29,.01,.54,.04,.75,.03,.21,.08,.38,.17,.53s.22,.25,.4,.33c.18,.07,.42,.11,.72,.11,.19,0,.38,0,.58-.01,.19,0,.38-.04,.58-.09v2.12c-.31,.03-.6,.06-.89,.1-.29,.03-.59,.05-.89,.05-.72,0-1.3-.07-1.75-.21-.44-.14-.79-.34-1.04-.6-.25-.27-.42-.6-.51-1-.09-.4-.14-.86-.16-1.37v-7.35h-2.07v-2.05Z"/></g><g><rect class="cls-4" x="27.5" y="348.65" width="328" height="1"/><rect class="cls-4" x="27.5" y="298.87" width="328" height="1"/></g><g><path class="cls-7" d="M183.87,425.56h1.76v.94h-4.66v4.73h-1.18v-4.73h-4.64v-.94h7.57c.29-1.18,.39-2.86,.39-4.12h-6.75v-.97h7.95c0,1.7-.09,3.45-.43,5.09Z"/><path class="cls-7" d="M192.6,425.94c-1.04-.46-2.17-1.41-2.63-2.56-.36,1.21-1.54,2.34-2.79,2.91l-.73-.92c1.67-.72,2.91-2.11,2.91-3.93v-1.17h1.2v1.12c0,1.83,1.41,3.18,2.74,3.64l-.69,.92Zm-.27,5.29c-2.48,0-3.91-.86-3.91-2.24s1.42-2.26,3.91-2.26,3.92,.88,3.92,2.26-1.41,2.24-3.92,2.24Zm-2.71-2.24c0,.81,1.01,1.3,2.71,1.3s2.72-.49,2.72-1.3-1-1.32-2.72-1.32-2.71,.5-2.71,1.32Zm3.12-5.81v-.96h2.23v-2.6h1.18v7.1h-1.18v-3.54h-2.23Z"/><path class="cls-7" d="M202.22,420.81h2.77c2.09,0,2.91,.85,2.91,2.26,0,.89-.39,1.58-1.46,1.93v.05c1.12,.21,1.83,.86,1.83,2.15,0,1.47-1.01,2.54-3.06,2.54h-2.99v-8.93Zm2.57,3.84c1.08,0,1.89-.32,1.89-1.42s-.62-1.41-1.78-1.41h-1.5v2.83h1.39Zm.36,4.11c1.25,0,1.9-.53,1.9-1.61s-.72-1.55-1.98-1.55h-1.67v3.16h1.75Z"/></g><g><path class="cls-3" d="M177.57,370.47l-.35-.43c1.32-.64,2.24-1.81,2.34-3.02h-2.09v-.48h2.71c-.03,1.79-1.07,3.1-2.61,3.94Zm3.68,1.09v-5.62h.57v5.62h-.57Z"/><path class="cls-3" d="M183.54,370.05h-.54v-3.49h.57v3.01c.55,0,1.4-.06,1.79-.17,.03,.15,.06,.31,.08,.47-.41,.1-1.22,.17-1.9,.18Zm3.44,1.5v-2.96h-.69v2.68h-.54v-5.22h.54v2.07h.69v-2.19h.55v5.62h-.55Z"/><path class="cls-3" d="M191.68,366.36c1,0,1.44,.87,1.44,1.99s-.44,1.99-1.44,1.99-1.45-.87-1.45-1.99,.45-1.98,1.45-1.98Zm0,.49c-.57,0-.87,.63-.87,1.5s.3,1.49,.87,1.49,.87-.62,.87-1.49-.3-1.5-.87-1.5Zm2.42,4.71v-5.62h.57v5.62h-.57Z"/><path class="cls-3" d="M195.57,367.43v-.46h2.89v.46h-2.89Zm1.46,2.01c-.77,0-1.22-.35-1.22-.89s.44-.91,1.22-.91,1.21,.36,1.21,.91-.44,.89-1.21,.89Zm-.78-2.8v-.46h1.47v.46h-1.47Zm.78,1.49c-.42,0-.67,.17-.67,.42s.25,.42,.67,.42,.66-.17,.66-.42-.24-.42-.66-.42Zm1.48,3.43c-1.19,0-1.91-.37-1.91-.98s.72-.97,1.91-.97,1.9,.37,1.9,.97-.71,.98-1.9,.98Zm-1.33-.98c0,.33,.51,.53,1.33,.53s1.32-.21,1.32-.53-.51-.53-1.32-.53-1.33,.21-1.33,.53Zm2.62-.95v-1.63h-.62v1.43h-.54v-3.38h.54v1.49h.62v-1.59h.55v3.68h-.55Z"/><path class="cls-3" d="M204.23,368.95c-.5-.22-1.11-.75-1.35-1.31-.17,.58-.77,1.17-1.41,1.49l-.35-.44c.79-.34,1.46-1.06,1.46-1.98v-.55h.59v.52c0,.93,.75,1.61,1.39,1.83l-.33,.44Zm.97,2.6v-1.52h-3.2v-.46h3.77v1.99h-.57Zm0-2.29v-3.33h.57v3.33h-.57Z"/></g><g><path class="cls-3" d="M182.3,407.98c.91,0,1.36,.74,1.43,1.73h1.14v-2.13h.57v5.62h-.57v-3.01h-1.14c-.06,1-.5,1.76-1.43,1.76-1,0-1.45-.87-1.45-1.99s.45-1.99,1.45-1.99Zm0,.49c-.57,0-.86,.63-.86,1.5s.29,1.49,.86,1.49,.87-.63,.87-1.49-.3-1.5-.87-1.5Z"/><path class="cls-3" d="M186.56,411.73v-3.53h2.24v1.47h.71v-1.96h.54v5.21h-.54v-2.8h-.71v1.59h-2.24Zm1.69-3.07h-1.15v2.62h1.15v-2.62Zm2.33,4.55v-5.62h.55v5.62h-.55Z"/><path class="cls-3" d="M195.54,411.55c-.66,.16-1.92,.26-2.72,.27h-.53v-3.65h.57v3.16c.74,0,1.95-.09,2.6-.24l.07,.46Zm1.02,1.66h-.57v-5.62h.57v5.62Z"/><path class="cls-3" d="M201.05,411.68c-.59,.12-1.63,.18-2.67,.19-.19,0-.38,0-.57,0v-3.77h2.65v.46h-2.08v1.13h1.97v.46h-1.97v1.24c.93,0,2.02-.05,2.6-.18l.08,.46Zm.53,1.52v-5.62h.57v5.62h-.57Z"/></g><g><path class="cls-3" d="M179.91,496.59v-3.74h.57v1.4h1.58v-1.41h.57v3.75h-2.71Zm2.15-1.88h-1.58v1.42h1.58v-1.42Zm1.65,3.27v-5.62h.57v5.62h-.57Z"/><path class="cls-3" d="M188.18,496.68c-.55-.31-1.18-1.01-1.36-1.63-.17,.64-.73,1.36-1.41,1.77l-.37-.42c.87-.5,1.48-1.45,1.48-2.51v-.46h-1.27v-.47h3.09v.47h-1.24v.46c0,1.09,.61,1.94,1.41,2.38l-.33,.42Zm1.36-1.59v2.9h-.57v-5.62h.57v2.24h.88v.48h-.88Z"/><path class="cls-3" d="M192.64,495.09v-2.5h.57v.78h1.52v-.79h.57v2.51h-2.66Zm.59,2.86v-1.43h3v-.48h-3.05v-.46h3.62v1.37h-3.01v.54h3.21v.46h-3.77Zm1.5-4.12h-1.52v.8h1.52v-.8Zm2.07,.23v1.22h-.57v-2.91h.57v1.22h.84v.47h-.84Z"/><path class="cls-3" d="M202.24,494.67h.85v.47h-5.07v-.47h3.67c.09-.42,.15-1.16,.15-1.59h-3.16v-.46h3.74c0,.73-.06,1.49-.18,2.04Zm-3.58,3.24v-2.3h.57v.69h2.64v-.7h.57v2.32h-3.78Zm3.21-1.16h-2.64v.71h2.64v-.71Z"/></g><g><path class="cls-3" d="M178.53,449.66c1,0,1.44,.87,1.44,1.99s-.44,1.99-1.44,1.99-1.45-.87-1.45-1.99,.45-1.98,1.45-1.98Zm0,.49c-.57,0-.87,.63-.87,1.5s.3,1.49,.87,1.49,.87-.62,.87-1.49-.3-1.5-.87-1.5Zm2.42,4.71v-5.62h.57v5.62h-.57Z"/><path class="cls-3" d="M182.42,450.74v-.46h2.89v.46h-2.89Zm1.46,2.01c-.77,0-1.22-.35-1.22-.89s.44-.91,1.22-.91,1.21,.36,1.21,.91-.44,.89-1.21,.89Zm-.78-2.8v-.46h1.47v.46h-1.47Zm.78,1.49c-.42,0-.67,.17-.67,.42s.25,.42,.67,.42,.66-.17,.66-.42-.24-.42-.66-.42Zm1.48,3.43c-1.19,0-1.91-.37-1.91-.98s.72-.97,1.91-.97,1.9,.37,1.9,.97-.71,.98-1.9,.98Zm-1.33-.98c0,.33,.51,.53,1.33,.53s1.32-.21,1.32-.53-.51-.53-1.32-.53-1.33,.21-1.33,.53Zm2.62-.95v-1.63h-.62v1.43h-.54v-3.38h.54v1.49h.62v-1.59h.55v3.68h-.55Z"/><path class="cls-3" d="M190.06,453.77l-.35-.43c1.32-.64,2.14-1.81,2.24-3.02h-2v-.48h2.61c-.03,1.79-.97,3.1-2.51,3.94Zm3.99-2.23h.9v.48h-.9v2.84h-.57v-5.62h.57v2.3Z"/><path class="cls-3" d="M196.92,449.66c1,0,1.44,.87,1.44,1.99s-.44,1.99-1.44,1.99-1.45-.87-1.45-1.99,.45-1.98,1.45-1.98Zm0,.49c-.57,0-.87,.63-.87,1.5s.3,1.49,.87,1.49,.87-.62,.87-1.49-.3-1.5-.87-1.5Zm2.42,4.71v-5.62h.57v5.62h-.57Z"/><path class="cls-3" d="M200.84,454.1v-.46h5.07v.46h-5.07Zm.66-1.65v-2.66h3.76v.46h-3.2v1.74h3.25v.46h-3.81Z"/></g><g><path class="cls-7" d="M169.61,388.06v-.95h10.26v.95h-10.26Zm.9-7.81v-.92h8.4v.92h-8.4Zm.01,4.69v-.92h1.79l-.31-3.05,1.17-.17,.23,3.22h2.63l.39-3.2,1.13,.2-.47,3h1.81v.92h-8.37Z"/><path class="cls-7" d="M188.2,386.47c-1.18,.2-3.04,.35-5.34,.38h-1.42v-4.47h4.25v-2.25h-4.3v-.94h5.45v4.11h-4.25v2.57h.34c1.59,0,3.78-.09,5.16-.35l.12,.95Zm2.03-8.3v11.36h-1.16v-11.36h1.16Z"/><path class="cls-7" d="M192.7,386.63v-7.32h5.45v7.32h-5.45Zm4.3-6.38h-3.16v5.43h3.16v-5.43Zm3.25,9.28v-11.36h1.14v11.36h-1.14Z"/><path class="cls-7" d="M209.24,381.49c0,1.6-1.3,2.63-2.9,2.63s-2.89-1.01-2.89-2.63,1.3-2.7,2.89-2.7,2.9,1.1,2.9,2.7Zm-4.65-.01c0,1.01,.74,1.73,1.76,1.73s1.75-.71,1.75-1.71-.66-1.74-1.75-1.74c-1.01,0-1.76,.75-1.76,1.73Zm.75,7.89v-4.19h7.33v4.19h-7.33Zm6.17-3.28h-5.03v2.36h5.03v-2.36Zm-1.82-4.19v-.95h1.82v-2.79h1.16v6.42h-1.16v-2.68h-1.82Z"/></g><g><path class="cls-7" d="M168.18,461.83h6.12v.95h-2.44v.53c0,1.61,1.36,2.98,2.65,3.37l-.64,.92c-1.01-.4-2.12-1.43-2.59-2.47-.36,1.09-1.59,2.31-2.77,2.79l-.68-.91c1.47-.53,2.85-2.09,2.85-3.68v-.56h-2.51v-.95Zm1.53,10.03v-3.52h1.15v2.59h6.58v.94h-7.72Zm6.32-2.72v-4.26h-2.18v-.94h2.18v-3.09h1.16v8.29h-1.16Z"/><path class="cls-7" d="M185.57,465.28l.17,.9c-1.2,.25-3.04,.39-5.04,.4h-1.16v-4.93h5.12v.95h-3.98v3.05c1.7,0,3.68-.13,4.89-.38Zm-4.87,6.79v-4.19h7.2v4.19h-7.2Zm6.06-3.28h-4.91v2.35h4.91v-2.35Zm1.14-4.19v2.68h-1.16v-6.42h1.16v2.79h1.69v.95h-1.69Z"/><path class="cls-7" d="M195.49,463.17l-1.58,.35v-.66l2.11-.98h.62v8.93h-1.14v-7.64Z"/><path class="cls-7" d="M198.46,470.27l.22-.91c.48,.31,1.3,.61,2,.61,1.35,0,2.16-.75,2.16-1.96,0-1.29-.78-1.79-2.11-1.79-.6,0-1.42,.25-1.82,.43l.31-4.63h4.46v.95h-3.55l-.17,2.55c.34-.09,.85-.18,1.22-.18,1.75,0,2.83,.86,2.83,2.7,0,1.57-1.17,2.89-3.09,2.89-1.01,0-1.94-.29-2.47-.65Z"/><path class="cls-7" d="M211.21,463.82c0,1.52-1.27,2.52-2.9,2.52s-2.91-.96-2.91-2.51,1.27-2.6,2.91-2.6,2.9,1.05,2.9,2.59Zm-4.68,0c0,.92,.77,1.56,1.78,1.56,1.07,0,1.77-.68,1.77-1.56,0-.94-.69-1.6-1.77-1.6-.99,0-1.78,.66-1.78,1.6Zm.49,8.32v-2.92h6.23v-1.05h-6.26v-.94h7.42v2.85h-6.24v1.12h6.64v.95h-7.79Zm6.23-5.5v-5.78h1.16v5.78h-1.16Z"/></g><g><path class="cls-7" d="M149.82,511.6v-5.17h5.24v5.17h-5.24Zm4.09-4.26h-2.95v3.35h2.95v-3.35Zm.91,9.57c-2.44,0-3.86-.84-3.86-2.21s1.42-2.22,3.86-2.22,3.87,.87,3.87,2.22-1.39,2.21-3.87,2.21Zm-2.67-2.21c0,.79,1,1.26,2.67,1.26s2.7-.47,2.7-1.26-.99-1.27-2.7-1.27-2.67,.48-2.67,1.27Zm3.47-7.36h1.84v-1.79h1.16v6.97h-1.16v-1.91h-1.84v-.92h1.84v-1.42h-1.84v-.92Z"/><path class="cls-7" d="M165.31,508.19h1.55v-2.43h1.09v10.58h-1.09v-3.65h-1.57c-.39,1.03-1.09,1.68-2.13,1.68-1.69,0-2.5-1.72-2.5-3.96s.81-3.91,2.5-3.91c1.07,0,1.77,.66,2.16,1.7Zm-2.16-.74c-.91,0-1.37,1.22-1.37,2.96s.45,2.98,1.37,2.98,1.38-1.22,1.38-2.98-.47-2.96-1.38-2.96Zm2.4,1.69c.06,.4,.1,.82,.1,1.27,0,.48-.04,.92-.12,1.34h1.31v-2.61h-1.3Zm3.5,7.76v-11.36h1.1v11.36h-1.1Z"/><path class="cls-7" d="M178.56,506.4c2.01,0,2.91,1.76,2.91,4.02s-.9,4.02-2.91,4.02-2.93-1.77-2.93-4.03,.91-4,2.93-4Zm0,.99c-1.16,0-1.76,1.27-1.76,3.03s.6,3.02,1.76,3.02,1.77-1.26,1.77-3.02-.6-3.03-1.77-3.03Zm4.89,9.51v-11.36h1.16v11.36h-1.16Z"/><path class="cls-7" d="M186.42,508.57v-.92h5.84v.92h-5.84Zm2.95,4.06c-1.56,0-2.46-.72-2.46-1.81s.9-1.83,2.46-1.83,2.44,.73,2.44,1.83-.88,1.81-2.44,1.81Zm-1.57-5.67v-.92h2.98v.92h-2.98Zm1.57,3c-.84,0-1.35,.35-1.35,.86s.51,.86,1.35,.86,1.34-.35,1.34-.86-.49-.86-1.34-.86Zm2.99,6.93c-2.4,0-3.86-.74-3.86-1.97s1.46-1.96,3.86-1.96,3.85,.74,3.85,1.96-1.44,1.97-3.85,1.97Zm-2.69-1.97c0,.66,1.03,1.08,2.69,1.08s2.68-.42,2.68-1.08-1.03-1.07-2.68-1.07-2.69,.42-2.69,1.07Zm5.3-1.92v-3.29h-1.25v2.89h-1.09v-6.84h1.09v3h1.25v-3.21h1.1v7.45h-1.1Z"/><path class="cls-7" d="M203.75,514.25c-1.1-.62-2.39-2.04-2.76-3.3-.35,1.29-1.48,2.74-2.85,3.59l-.74-.84c1.76-1,2.99-2.92,2.99-5.08v-.94h-2.56v-.95h6.25v.95h-2.51v.92c0,2.2,1.23,3.91,2.85,4.81l-.68,.85Zm2.75-3.21v5.86h-1.14v-11.36h1.14v4.54h1.78v.96h-1.78Z"/><path class="cls-7" d="M212.96,514.08v-7.57h1.14v2.83h3.2v-2.85h1.14v7.58h-5.49Zm4.34-3.8h-3.2v2.87h3.2v-2.87Zm3.33,6.62v-11.36h1.16v11.36h-1.16Z"/><path class="cls-7" d="M229.67,514.25c-1.1-.62-2.39-2.04-2.76-3.3-.35,1.29-1.48,2.74-2.85,3.59l-.74-.84c1.76-1,2.99-2.92,2.99-5.08v-.94h-2.56v-.95h6.25v.95h-2.51v.92c0,2.2,1.23,3.91,2.85,4.81l-.68,.85Zm2.75-3.21v5.86h-1.14v-11.36h1.14v4.54h1.78v.96h-1.78Z"/></g><g><path class="cls-4" d="M204.16,581.74c-.71,.17-1.22,.43-1.59,.73v-.86h-1.54v7.14h1.54v-3.87c.02-.77,.14-1.51,1.14-2.02,1.34-.69,3.1,.03,3.1,2.45v3.44h1.54v-3.44h0v-.42c0-2.42-2.2-3.65-4.2-3.17Z"/><path class="cls-4" d="M186.79,581.62c-3.94,0-3.67,3.94-3.67,4.1,.05,1.74,1.59,3.3,3.73,3.3,2.4,0,3.49-1.28,3.73-2.5h-1.33s-.56,1.39-2.39,1.39-2.55-1.59-2.55-2.19h6.37s.36-4.09-3.9-4.09Zm2.58,3.07h-2.52s-2.52,0-2.52,0c0-.08,.1-2.04,2.44-2.04,2.64,0,2.59,2.04,2.59,2.04Z"/><polygon class="cls-4" points="176.18 578.64 174.64 578.64 174.64 588.79 176.18 588.79 176.18 588.79 181.93 588.79 181.93 587.52 176.18 587.52 176.18 578.64"/><path class="cls-4" d="M195.44,581.74c-.71,.17-1.22,.43-1.58,.73v-3.83h-1.54v10.12h1.54v-3.96c.03-.73,.18-1.44,1.14-1.93,1.34-.69,3.1,.03,3.1,2.45v3.44h1.54v-3.44h0v-.42c0-2.42-2.2-3.65-4.2-3.17Z"/><polygon class="cls-4" points="188.39 578.64 186.91 578.64 186.5 580.84 187.15 580.84 188.39 578.64"/></g><g><g><path class="cls-6" d="M300.22,512.49c-.26,.17-.42,.34-.53,.51l-.12-.34-.61,.21,.98,2.82,.61-.21-.5-1.43c-.12-.33-.22-.67,.14-1.05,.44-.46,1.23-.41,1.56,.54l.47,1.36,.61-.21-.47-1.36h0s-.02-.07-.02-.07l-.03-.09c-.33-.96-1.37-1.14-2.1-.67Z"/><path class="cls-6" d="M293.33,514.84c-1.61,.56-.96,2.08-.94,2.14,.26,.68,1.11,1.08,1.98,.77,.98-.34,1.25-1.01,1.18-1.52l-.55,.19s-.04,.63-.79,.89-1.26-.27-1.35-.5l2.61-.91s-.42-1.67-2.16-1.06Zm.45,1.2l-1.03,.36s-.24-.82,.72-1.16c1.08-.38,1.34,.44,1.34,.44l-1.03,.36Z"/><polygon class="cls-6" points="288.43 515.23 287.82 515.45 289.22 519.46 289.83 519.25 289.83 519.24 292.4 518.35 292.23 517.85 289.65 518.74 288.43 515.23"/><path class="cls-6" d="M296.77,513.7c-.26,.17-.42,.34-.52,.51l-.53-1.51-.61,.21,1.39,4,.61-.21-.51-1.48c-.11-.32-.19-.65,.15-1.01,.44-.46,1.23-.41,1.56,.54l.47,1.36,.61-.21-.47-1.36h0s-.02-.07-.02-.07l-.03-.09c-.33-.96-1.37-1.14-2.1-.67Z"/><polygon class="cls-6" points="293.62 513.55 293.03 513.75 293.11 514.57 293.37 514.48 293.62 513.55"/></g><g><polygon class="cls-6" points="291.3 536.75 292.13 526.02 290.65 526.54 290.1 535.56 284 528.86 282.44 529.4 289.83 537.27 291.3 536.75"/><rect class="cls-6" x="294.69" y="525.16" width="1.46" height="9.86" transform="translate(-158.13 126.9) rotate(-19.23)"/><path class="cls-6" d="M304.79,530.5c-.36,.44-.92,.79-1.68,1.05-.38,.13-.76,.23-1.13,.28s-.72,.05-1.06,0c-.34-.06-.64-.2-.91-.41s-.48-.52-.63-.91l-1.38,.48c.22,.62,.52,1.1,.91,1.45,.39,.35,.83,.58,1.32,.69,.49,.11,1.01,.13,1.54,.07,.54-.07,1.09-.2,1.65-.39,.5-.18,.97-.4,1.41-.66s.8-.58,1.11-.96c.3-.37,.5-.8,.59-1.27s.03-.99-.16-1.56c-.15-.44-.38-.78-.69-1.01-.3-.23-.64-.38-1-.44-.36-.06-.69-.09-.99-.06-.3,.02-.61,.05-.94,.1h-.03s-2.42,.41-2.42,.41c-.58,.1-1.02,.08-1.33-.05-.31-.13-.51-.34-.62-.65-.09-.26-.11-.51-.05-.75,.06-.24,.17-.46,.33-.66,.17-.2,.36-.37,.6-.51,.23-.14,.48-.26,.75-.36,.53-.18,.99-.29,1.38-.31,.39-.02,.71,.02,.97,.12s.46,.23,.62,.38c.15,.16,.28,.34,.4,.55l1.38-.48c-.22-.53-.51-.94-.88-1.24-.36-.3-.77-.49-1.22-.59s-.92-.12-1.4-.06c-.48,.06-.98,.17-1.48,.35-1.17,.41-2,.99-2.48,1.73-.48,.74-.57,1.54-.27,2.4,.15,.43,.36,.76,.64,1,.28,.24,.59,.4,.92,.48,.34,.08,.67,.12,1.01,.11,.34-.01,.68-.05,1.04-.11l2.23-.38c.61-.1,1.09-.1,1.46,.01s.62,.37,.76,.77c.17,.5,.08,.96-.29,1.4Z"/><path class="cls-6" d="M315.92,528.16l1.58-.55-7.46-7.84-1.58,.55-.96,10.78,1.49-.52,.24-3.13,4.56-1.59,2.13,2.3Zm-6.59-2.09l.31-4.73,3.22,3.5-3.53,1.23Z"/><path class="cls-6" d="M310.37,541.39l-6.34,2.21-1.3-3.73-1.38,.48,2.14,6.13c-2.4,1.06-5.15,1.72-8.06,1.97l-.1-.28,5.92-2.06-.42-1.2-5.92,2.06-.94-2.7,6.1-2.13-.42-1.2-7.48,2.61,1.74,4.99c-.76,.03-1.54,.02-2.31-.01l-1.49-4.26-1.38,.48,1.28,3.68c-2.31-.2-4.65-.66-6.95-1.37l-.34-.21-.14,.05c-1.21-.39-2.41-.85-3.58-1.39-6.17-2.85-10.39-7.16-12.09-11.69,.18-.35,.37-.69,.57-1.03-.2,.26-.4,.53-.58,.8-.02,.02-.03,.05-.05,.08-1.24-3.42-1.04-6.96,.83-10.09-.17,.47-.03,1.01,.38,1.32,.51,.38,1.23,.28,1.62-.23,.38-.51,.28-1.23-.23-1.62-.48-.36-1.15-.29-1.54,.15,.01-.02,.02-.04,.03-.06-.18,.21-.36,.43-.52,.65-2.6,3.44-2.97,7.5-1.48,11.4-2.77,5.26-2.46,11.83,.43,17.23-.45,.08-.91,.19-1.36,.35-.63,.22-1.19,.53-1.7,.92s-.93,.88-1.25,1.45c-.32,.57-.51,1.22-.55,1.96-.04,.74,.08,1.54,.39,2.41,.19,.55,.47,1.07,.84,1.56s.82,.9,1.37,1.23c.54,.33,1.19,.53,1.93,.59s1.55-.06,2.44-.37c.47-.16,.88-.36,1.22-.58s.63-.46,.87-.7c.23-.25,.42-.49,.56-.74,.14-.25,.27-.51,.38-.78l.7,1.25,.99-.35-.41-1.17c1.22,.8,2.55,1.48,3.99,2,11.82,4.28,26.68-3.24,32.96-12.37,.19-.27,.36-.54,.53-.82-6.41,8.34-19.99,13.9-31.3,10.34l3.8-1.33-.42-1.2-5.27,1.84c-.44-.18-.87-.38-1.29-.59l-.73-2.08,5.92-2.06-.42-1.2-5.92,2.06-.94-2.7,6.1-2.13-.42-1.2-7.48,2.61,1.95,5.6c-7.31-4.7-10.36-13.3-7.72-20.58,1.82,4.35,5.95,8.44,11.89,11.19,1.1,.51,2.23,.95,3.37,1.33l2.98,8.56,1.38-.48-2.58-7.4h.03s8.57,5.31,8.57,5.31l1.6-.56-1.29-3.7c.77,0,1.53-.04,2.28-.1l1.07,3.08,7.61-2.66-.42-1.2-6.23,2.17-.54-1.56c2.9-.39,5.59-1.2,7.9-2.43l.86,2.46,1.38-.48-.95-2.73c1.35-.87,2.54-1.9,3.51-3.08l2.25-.79,1.53,4.38,1.38-.48-3.25-9.31-1.38,.48,1.3,3.73Zm-40.09,18.27c-.44,.75-1.16,1.3-2.15,1.64-.5,.18-1,.27-1.48,.28-.48,.01-.94-.07-1.38-.24-.44-.17-.83-.46-1.18-.87-.35-.4-.64-.92-.86-1.56-.18-.5-.27-1.01-.28-1.5-.01-.5,.07-.97,.24-1.42,.17-.45,.45-.85,.84-1.21,.38-.35,.87-.63,1.46-.84s1.12-.3,1.6-.3c.61,.97,1.31,1.88,2.09,2.74l-2.03,.71,.42,1.2,2.59-.9c.18,.17,.37,.34,.56,.51,.04,.62-.11,1.21-.44,1.76Zm21.03-7.5h-.03s-4.28-2.64-4.28-2.64c1.17,.18,2.34,.29,3.5,.34l.81,2.31Zm13.49-6.34l-.36-1.02,3.7-1.29c-.98,.89-2.11,1.65-3.34,2.31Z"/><polygon class="cls-6" points="320.78 542.23 314.4 535.8 312.46 536.48 315.7 545.79 317.09 545.3 314.45 537.74 314.47 537.73 320.72 544.03 321.95 543.61 322.88 534.63 322.91 534.62 325.6 542.33 326.98 541.85 323.73 532.54 321.82 533.21 320.78 542.23"/><rect class="cls-6" x="327.44" y="531.29" width="1.46" height="9.86" transform="translate(-158.32 138.03) rotate(-19.23)"/><path class="cls-6" d="M336.38,534.29l3.05-1.06c.22,.87,.11,1.68-.33,2.43s-1.16,1.3-2.15,1.64c-.5,.18-1,.27-1.48,.28-.48,.01-.94-.07-1.38-.24-.44-.17-.83-.46-1.18-.87-.35-.4-.64-.92-.86-1.56-.18-.5-.27-1.01-.28-1.5-.01-.5,.07-.97,.24-1.42,.17-.45,.45-.85,.84-1.21,.38-.35,.87-.63,1.46-.84,.87-.3,1.62-.38,2.24-.23s1.16,.52,1.6,1.1l1.46-.51c-.35-.57-.76-1.01-1.23-1.31-.46-.31-.95-.5-1.46-.59-.51-.08-1.03-.09-1.54-.02-.52,.07-1.03,.2-1.56,.38-.63,.22-1.19,.53-1.7,.92s-.93,.88-1.25,1.45c-.32,.57-.51,1.22-.55,1.96-.04,.74,.08,1.54,.39,2.41,.19,.55,.47,1.07,.84,1.56s.82,.9,1.37,1.23c.54,.33,1.19,.53,1.93,.59s1.55-.06,2.44-.37c.47-.16,.88-.36,1.22-.58s.63-.46,.87-.7c.23-.25,.42-.49,.56-.74,.14-.25,.27-.51,.38-.78l.7,1.25,.99-.35-1.75-5.02-4.28,1.49,.42,1.2Z"/><polygon class="cls-6" points="339.71 526.97 340.13 528.17 343.65 526.94 346.48 535.05 347.86 534.57 345.03 526.46 348.55 525.23 348.14 524.03 339.71 526.97"/></g><path class="cls-6" d="M348.64,498.91l-4.28,1.49c-1.19-5.79-12.56-4.6-17.06-4.32-12.23,1.19-24.15,4.28-35.7,8.27-11.52,4.06-22.76,9.1-33.06,15.79-3.62,2.55-13.26,8.68-10.63,13.92l-4.36,1.52,12.75,36.54,4.52-1.58c.07,.09,.12,.18,.2,.26,8.32,6.97,41.61-2.42,51.65-6.05,12.58-4.51,35.78-14.1,43.41-25.03,.39-.71,.74-1.47,.82-2.36,.01-.11,0-.23,0-.34l4.5-1.57-12.75-36.54Zm3.51,43.45c-6.93,5.77-15.3,9.58-23.53,13.18-5.55,2.38-11.19,4.55-16.89,6.53-9.87,3.4-41.66,13.92-50,8.02-.51-.5-.68-1.16-.93-1.82,0,0-3.11-8.57-3.11-8.57-2.94-8.32-6.19-17.51-8.91-25.85-1.42-2.87,1.32-5.33,3.3-7.14,6.94-5.77,15.32-9.56,23.55-13.15,5.55-2.37,11.19-4.54,16.9-6.51,5.7-2,11.47-3.8,17.29-5.39,8.68-2.28,17.6-4.51,26.61-4.3,2.65,.2,6.28,.4,6.96,3.48,1.58,4.26,4.63,12.88,6.15,17.16,2,5.74,3.97,11.49,5.88,17.25,1.41,2.85-1.32,5.28-3.28,7.09Z"/></g></svg>