<?xml version="1.0" encoding="UTF-8"?><svg id="Layer_1" xmlns="http://www.w3.org/2000/svg" viewBox="0 0 603.72 166.62"><defs><style>.cls-1{fill:#fff;}</style></defs><path class="cls-1" d="M554.17,59.73c-8.39,2.02-14.44,5.07-18.73,8.66v-10.09h-18.18v84.36h18.18v-45.68c.19-9.03,1.69-17.82,13.48-23.85,15.86-8.11,36.63,.38,36.63,28.9v40.63h18.18v-45.51c0-28.57-26.02-43.09-49.56-37.42Z"/><path class="cls-1" d="M349.06,58.3c-46.57,0-43.36,46.54-43.31,48.4,.55,20.6,18.79,38.94,44.05,38.94,28.32,0,41.24-15.14,44.1-29.49h-15.74s-6.65,16.39-28.2,16.39-30.09-18.82-30.09-25.89h75.2s4.23-48.36-46.02-48.36Zm30.43,36.21h-29.73s-29.73,.03-29.73,.03c-.03-.89,1.2-24.12,28.81-24.12,31.18,0,30.64,24.09,30.64,24.09Z"/><polygon class="cls-1" points="223.78 23.18 205.61 23.18 205.61 143.05 223.78 143.05 223.78 143.03 291.6 143.03 291.6 128.06 223.78 128.06 223.78 23.18"/><path class="cls-1" d="M451.19,59.73c-8.37,2.02-14.4,5.05-18.69,8.63V23.18h-18.18v119.48h18.18v-46.91c.31-8.59,2.19-16.86,13.44-22.62,15.86-8.11,36.63,.38,36.63,28.9v40.63h18.18v-45.51c0-28.57-26.02-43.09-49.56-37.42Z"/><polygon class="cls-1" points="367.99 23.18 350.43 23.18 345.59 49.13 353.32 49.13 367.99 23.18"/><path class="cls-1" d="M54.55,93.44c-18.46-17.82-28.14-38.43-28.58-56.69,1.06-1.01,2.17-2,3.32-2.94-1.04,.68-2.07,1.39-3.07,2.12-.09,.07-.18,.14-.27,.2-.18-14.37,5.4-27.25,16.98-36.13-.9,.53-1.79,1.07-2.66,1.65-13.53,9.05-19.91,23.05-19.47,38.77-28.5,26.59-28.83,78.78,5.91,107.02,36.82,29.94,99.09,21.64,132.86-3.1,1-.73,1.97-1.49,2.91-2.26-34.07,22.34-91.45,24.85-127.18-4.2C3.22,111.81-.81,68.9,20.89,42.24c1.08,17.75,10.72,37.49,28.49,54.66,34.24,33.07,85.67,44.04,114.88,24.5,.87-.58,1.7-1.18,2.51-1.8-29.59,17.2-79,5.93-112.22-26.16Z"/></svg>