<?xml version="1.0" encoding="UTF-8"?><svg id="Layer_1" xmlns="http://www.w3.org/2000/svg" viewBox="0 0 383 629.65"><defs><style>.cls-1{fill:#f7f8f8;}.cls-2{fill:#9298af;}.cls-3{fill:#b9bccb;}.cls-4{fill:#c9caca;}.cls-5{fill:#ddd;}.cls-6{fill:#233764;}</style></defs><g><path class="cls-6" d="M174.99,388.21v-.96h10.48v.96h-10.48Zm9.53-3.23c-1.82-.52-3.75-1.99-4.29-3.3-.46,1.32-2.4,2.79-4.29,3.28l-.6-.96c1.9-.33,4.29-2.02,4.29-3.97v-.9h1.21v.9c0,1.94,2.54,3.67,4.32,4.01l-.64,.93Z"/><path class="cls-6" d="M190.73,385.83c.56-.03,1.05-.08,1.41-.15l.11,.94c-.61,.08-1.71,.2-2.71,.24-1.12,.08-2.06,.12-3.03,.12l-.19-1c.4,0,.82,0,1.27-.01l-.36-4.65,1.16-.16,.25,4.78,.82-.04c.08,0,.16,0,.25-.01l.28-4.72,1.13,.11-.4,4.54Zm-4.13-5.3v-.96h5.3v.96h-5.3Zm6.43,8.68v-5.59h-1.49v-.96h1.49v-4.23h1.13v10.78h-1.13Zm2.14,.57v-11.61h1.13v11.61h-1.13Z"/><path class="cls-6" d="M204.06,383.98c-1.05-.41-2.14-1.29-2.67-2.46-.36,1.2-1.5,2.23-2.79,2.82l-.7-.89c1.57-.61,2.87-1.93,2.87-3.76v-1.1h1.19v1.05c0,1.86,1.49,3.04,2.76,3.45l-.66,.89Zm-4.16,5.71v-2.92h6.43v-1.04h-6.43v-.96h7.61v2.87h-6.43v1.08h6.84v.97h-8.03Zm4.46-8.24h1.97v-1.12h-1.97v-.96h1.97v-1.22h1.18v6.01h-1.18v-1.75h-1.97v-.96Z"/></g><g><path class="cls-6" d="M183.87,425.56h1.76v.94h-4.66v4.73h-1.18v-4.73h-4.64v-.94h7.57c.29-1.18,.39-2.86,.39-4.12h-6.75v-.97h7.95c0,1.7-.09,3.45-.43,5.09Z"/><path class="cls-6" d="M192.6,425.94c-1.04-.46-2.17-1.41-2.63-2.56-.36,1.21-1.54,2.34-2.79,2.91l-.73-.92c1.67-.72,2.91-2.11,2.91-3.93v-1.17h1.2v1.12c0,1.83,1.41,3.18,2.74,3.64l-.69,.92Zm-.27,5.29c-2.48,0-3.91-.86-3.91-2.24s1.42-2.26,3.91-2.26,3.92,.88,3.92,2.26-1.41,2.24-3.92,2.24Zm-2.71-2.24c0,.81,1.01,1.3,2.71,1.3s2.72-.49,2.72-1.3-1-1.32-2.72-1.32-2.71,.5-2.71,1.32Zm3.12-5.81v-.96h2.23v-2.6h1.18v7.1h-1.18v-3.54h-2.23Z"/><path class="cls-6" d="M202.22,420.81h2.77c2.09,0,2.91,.85,2.91,2.26,0,.89-.39,1.58-1.46,1.93v.05c1.12,.21,1.83,.86,1.83,2.15,0,1.47-1.01,2.54-3.06,2.54h-2.99v-8.93Zm2.57,3.84c1.08,0,1.89-.32,1.89-1.42s-.62-1.41-1.78-1.41h-1.5v2.83h1.39Zm.36,4.11c1.25,0,1.9-.53,1.9-1.61s-.72-1.55-1.98-1.55h-1.67v3.16h1.75Z"/></g><g><path class="cls-6" d="M170.28,461.89h6.26v.97h-2.5v.55c0,1.65,1.39,3.04,2.71,3.44l-.65,.94c-1.04-.41-2.17-1.46-2.64-2.52-.37,1.12-1.62,2.36-2.83,2.86l-.69-.93c1.5-.55,2.91-2.14,2.91-3.76v-.57h-2.56v-.97Zm1.57,10.26v-3.6h1.17v2.64h6.72v.96h-7.89Zm6.46-2.78v-4.36h-2.23v-.96h2.23v-3.16h1.18v8.48h-1.18Z"/><path class="cls-6" d="M188.05,465.41l.17,.92c-1.22,.25-3.11,.4-5.15,.41h-1.18v-5.04h5.24v.97h-4.07v3.12c1.74,0,3.76-.13,5-.39Zm-4.98,6.94v-4.28h7.36v4.28h-7.36Zm6.19-3.35h-5.02v2.4h5.02v-2.4Zm1.17-4.28v2.74h-1.18v-6.56h1.18v2.86h1.73v.97h-1.73Z"/><path class="cls-6" d="M200.85,463.08h-4.44v-.98h5.73v.74l-3.44,8.21h-1.32l3.47-7.97Z"/><path class="cls-6" d="M209.28,463.92c0,1.55-1.3,2.58-2.96,2.58s-2.98-.98-2.98-2.56,1.3-2.66,2.98-2.66,2.96,1.08,2.96,2.64Zm-4.78,0c0,.94,.78,1.59,1.82,1.59,1.09,0,1.81-.69,1.81-1.59,0-.96-.7-1.63-1.81-1.63-1.01,0-1.82,.68-1.82,1.63Zm.51,8.5v-2.99h6.36v-1.08h-6.41v-.96h7.59v2.91h-6.38v1.14h6.79v.97h-7.96Zm6.36-5.62v-5.91h1.18v5.91h-1.18Z"/></g><g><path class="cls-3" d="M204.16,581.74c-.71,.17-1.22,.43-1.59,.73v-.86h-1.54v7.14h1.54v-3.87c.02-.77,.14-1.51,1.14-2.02,1.34-.69,3.1,.03,3.1,2.45v3.44h1.54v-3.44h0v-.42c0-2.42-2.2-3.65-4.2-3.17Z"/><path class="cls-3" d="M186.79,581.62c-3.94,0-3.67,3.94-3.67,4.1,.05,1.74,1.59,3.3,3.73,3.3,2.4,0,3.49-1.28,3.73-2.5h-1.33s-.56,1.39-2.39,1.39-2.55-1.59-2.55-2.19h6.37s.36-4.09-3.9-4.09Zm2.58,3.07h-2.52s-2.52,0-2.52,0c0-.08,.1-2.04,2.44-2.04,2.64,0,2.59,2.04,2.59,2.04Z"/><polygon class="cls-3" points="176.18 578.64 174.64 578.64 174.64 588.79 176.18 588.79 176.18 588.79 181.93 588.79 181.93 587.52 176.18 587.52 176.18 578.64"/><path class="cls-3" d="M195.44,581.74c-.71,.17-1.22,.43-1.58,.73v-3.83h-1.54v10.12h1.54v-3.96c.03-.73,.18-1.44,1.14-1.93,1.34-.69,3.1,.03,3.1,2.45v3.44h1.54v-3.44h0v-.42c0-2.42-2.2-3.65-4.2-3.17Z"/><polygon class="cls-3" points="188.39 578.64 186.91 578.64 186.5 580.84 187.15 580.84 188.39 578.64"/></g><g><path class="cls-2" d="M177.57,370.47l-.35-.43c1.32-.64,2.24-1.81,2.34-3.02h-2.09v-.48h2.71c-.03,1.79-1.07,3.1-2.61,3.94Zm3.68,1.09v-5.62h.57v5.62h-.57Z"/><path class="cls-2" d="M183.54,370.05h-.54v-3.49h.57v3.01c.55,0,1.4-.06,1.79-.17,.03,.15,.06,.31,.08,.47-.41,.1-1.22,.17-1.9,.18Zm3.44,1.5v-2.96h-.69v2.68h-.54v-5.22h.54v2.07h.69v-2.19h.55v5.62h-.55Z"/><path class="cls-2" d="M191.68,366.36c1,0,1.44,.87,1.44,1.99s-.44,1.99-1.44,1.99-1.45-.87-1.45-1.99,.45-1.98,1.45-1.98Zm0,.49c-.57,0-.87,.63-.87,1.5s.3,1.49,.87,1.49,.87-.62,.87-1.49-.3-1.5-.87-1.5Zm2.42,4.71v-5.62h.57v5.62h-.57Z"/><path class="cls-2" d="M195.57,367.43v-.46h2.89v.46h-2.89Zm1.46,2.01c-.77,0-1.22-.35-1.22-.89s.44-.91,1.22-.91,1.21,.36,1.21,.91-.44,.89-1.21,.89Zm-.78-2.8v-.46h1.47v.46h-1.47Zm.78,1.49c-.42,0-.67,.17-.67,.42s.25,.42,.67,.42,.66-.17,.66-.42-.24-.42-.66-.42Zm1.48,3.43c-1.19,0-1.91-.37-1.91-.98s.72-.97,1.91-.97,1.9,.37,1.9,.97-.71,.98-1.9,.98Zm-1.33-.98c0,.33,.51,.53,1.33,.53s1.32-.21,1.32-.53-.51-.53-1.32-.53-1.33,.21-1.33,.53Zm2.62-.95v-1.63h-.62v1.43h-.54v-3.38h.54v1.49h.62v-1.59h.55v3.68h-.55Z"/><path class="cls-2" d="M204.23,368.95c-.5-.22-1.11-.75-1.35-1.31-.17,.58-.77,1.17-1.41,1.49l-.35-.44c.79-.34,1.46-1.06,1.46-1.98v-.55h.59v.52c0,.93,.75,1.61,1.39,1.83l-.33,.44Zm.97,2.6v-1.52h-3.2v-.46h3.77v1.99h-.57Zm0-2.29v-3.33h.57v3.33h-.57Z"/></g><g><path class="cls-2" d="M182.3,407.98c.91,0,1.36,.74,1.43,1.73h1.14v-2.13h.57v5.62h-.57v-3.01h-1.14c-.06,1-.5,1.76-1.43,1.76-1,0-1.45-.87-1.45-1.99s.45-1.99,1.45-1.99Zm0,.49c-.57,0-.86,.63-.86,1.5s.29,1.49,.86,1.49,.87-.63,.87-1.49-.3-1.5-.87-1.5Z"/><path class="cls-2" d="M186.56,411.73v-3.53h2.24v1.47h.71v-1.96h.54v5.21h-.54v-2.8h-.71v1.59h-2.24Zm1.69-3.07h-1.15v2.62h1.15v-2.62Zm2.33,4.55v-5.62h.55v5.62h-.55Z"/><path class="cls-2" d="M195.54,411.55c-.66,.16-1.92,.26-2.72,.27h-.53v-3.65h.57v3.16c.74,0,1.95-.09,2.6-.24l.07,.46Zm1.02,1.66h-.57v-5.62h.57v5.62Z"/><path class="cls-2" d="M201.05,411.68c-.59,.12-1.63,.18-2.67,.19-.19,0-.38,0-.57,0v-3.77h2.65v.46h-2.08v1.13h1.97v.46h-1.97v1.24c.93,0,2.02-.05,2.6-.18l.08,.46Zm.53,1.52v-5.62h.57v5.62h-.57Z"/></g><g><path class="cls-6" d="M189.32,511.34h4.35v.97h-4.35v-.97Z"/><g><path class="cls-2" d="M179.91,496.59v-3.74h.57v1.4h1.58v-1.41h.57v3.75h-2.71Zm2.15-1.88h-1.58v1.42h1.58v-1.42Zm1.65,3.27v-5.62h.57v5.62h-.57Z"/><path class="cls-2" d="M188.18,496.68c-.55-.31-1.18-1.01-1.36-1.63-.17,.64-.73,1.36-1.41,1.77l-.37-.42c.87-.5,1.48-1.45,1.48-2.51v-.46h-1.27v-.47h3.09v.47h-1.24v.46c0,1.09,.61,1.94,1.41,2.38l-.33,.42Zm1.36-1.59v2.9h-.57v-5.62h.57v2.24h.88v.48h-.88Z"/><path class="cls-2" d="M192.64,495.09v-2.5h.57v.78h1.52v-.79h.57v2.51h-2.66Zm.59,2.86v-1.43h3v-.48h-3.05v-.46h3.62v1.37h-3.01v.54h3.21v.46h-3.77Zm1.5-4.12h-1.52v.8h1.52v-.8Zm2.07,.23v1.22h-.57v-2.91h.57v1.22h.84v.47h-.84Z"/><path class="cls-2" d="M202.24,494.67h.85v.47h-5.07v-.47h3.67c.09-.42,.15-1.16,.15-1.59h-3.16v-.46h3.74c0,.73-.06,1.49-.18,2.04Zm-3.58,3.24v-2.3h.57v.69h2.64v-.7h.57v2.32h-3.78Zm3.21-1.16h-2.64v.71h2.64v-.71Z"/></g></g><g><path class="cls-2" d="M178.53,449.66c1,0,1.44,.87,1.44,1.99s-.44,1.99-1.44,1.99-1.45-.87-1.45-1.99,.45-1.98,1.45-1.98Zm0,.49c-.57,0-.87,.63-.87,1.5s.3,1.49,.87,1.49,.87-.62,.87-1.49-.3-1.5-.87-1.5Zm2.42,4.71v-5.62h.57v5.62h-.57Z"/><path class="cls-2" d="M182.42,450.74v-.46h2.89v.46h-2.89Zm1.46,2.01c-.77,0-1.22-.35-1.22-.89s.44-.91,1.22-.91,1.21,.36,1.21,.91-.44,.89-1.21,.89Zm-.78-2.8v-.46h1.47v.46h-1.47Zm.78,1.49c-.42,0-.67,.17-.67,.42s.25,.42,.67,.42,.66-.17,.66-.42-.24-.42-.66-.42Zm1.48,3.43c-1.19,0-1.91-.37-1.91-.98s.72-.97,1.91-.97,1.9,.37,1.9,.97-.71,.98-1.9,.98Zm-1.33-.98c0,.33,.51,.53,1.33,.53s1.32-.21,1.32-.53-.51-.53-1.32-.53-1.33,.21-1.33,.53Zm2.62-.95v-1.63h-.62v1.43h-.54v-3.38h.54v1.49h.62v-1.59h.55v3.68h-.55Z"/><path class="cls-2" d="M190.06,453.77l-.35-.43c1.32-.64,2.14-1.81,2.24-3.02h-2v-.48h2.61c-.03,1.79-.97,3.1-2.51,3.94Zm3.99-2.23h.9v.48h-.9v2.84h-.57v-5.62h.57v2.3Z"/><path class="cls-2" d="M196.92,449.66c1,0,1.44,.87,1.44,1.99s-.44,1.99-1.44,1.99-1.45-.87-1.45-1.99,.45-1.98,1.45-1.98Zm0,.49c-.57,0-.87,.63-.87,1.5s.3,1.49,.87,1.49,.87-.62,.87-1.49-.3-1.5-.87-1.5Zm2.42,4.71v-5.62h.57v5.62h-.57Z"/><path class="cls-2" d="M200.84,454.1v-.46h5.07v.46h-5.07Zm.66-1.65v-2.66h3.76v.46h-3.2v1.74h3.25v.46h-3.81Z"/></g><g><path class="cls-5" d="M191.5,235.32c-54.43,0-98.71-44.28-98.71-98.71s44.28-98.71,98.71-98.71,98.71,44.28,98.71,98.71-44.28,98.71-98.71,98.71Zm0-194.54c-52.84,0-95.83,42.99-95.83,95.83s42.99,95.83,95.83,95.83,95.83-42.99,95.83-95.83-42.99-95.83-95.83-95.83Z"/><circle class="cls-1" cx="191.5" cy="136.61" r="82.23"/><g><rect class="cls-4" x="191.36" y="54.38" width=".27" height="164.46"/><polygon class="cls-4" points="204.34 217.83 178.39 55.43 178.66 55.39 204.61 217.79 204.34 217.83"/><rect class="cls-4" x="191.36" y="54.38" width=".27" height="164.46" transform="translate(-33.04 66.5) rotate(-18.16)"/><polygon class="cls-4" points="229.02 209.78 153.74 63.57 153.98 63.44 229.26 209.66 229.02 209.78"/><polygon class="cls-4" points="240.1 202.94 142.68 70.44 142.9 70.28 240.32 202.78 240.1 202.94"/><polygon class="cls-4" points="249.96 194.44 132.85 78.97 133.04 78.78 250.15 194.25 249.96 194.44"/><polygon class="cls-4" points="258.35 184.49 124.49 88.95 124.65 88.73 258.51 184.27 258.35 184.49"/><polygon class="cls-4" points="265.07 173.34 117.81 100.13 117.93 99.88 265.19 173.09 265.07 173.34"/><rect class="cls-4" x="191.36" y="54.38" width=".27" height="164.46" transform="translate(3.99 278.65) rotate(-72.65)"/><rect class="cls-4" x="191.36" y="54.38" width=".27" height="164.46" transform="translate(28.76 306.46) rotate(-81.73)"/><polygon class="cls-4" points="109.28 137.91 109.28 137.64 273.72 135.31 273.72 135.59 109.28 137.91"/><rect class="cls-4" x="109.27" y="136.47" width="164.46" height=".27" transform="translate(-20.64 34.97) rotate(-9.9)"/><rect class="cls-4" x="109.27" y="136.47" width="164.46" height=".27" transform="translate(-33.96 69.52) rotate(-18.93)"/><polygon class="cls-4" points="118.99 175.4 118.87 175.16 264.01 97.82 264.13 98.06 118.99 175.4"/><polygon class="cls-4" points="126.03 186.36 125.86 186.14 256.97 86.86 257.14 87.08 126.03 186.36"/><polygon class="cls-4" points="134.7 196.07 134.5 195.88 248.3 77.15 248.5 77.34 134.7 196.07"/><polygon class="cls-4" points="144.79 204.29 144.57 204.13 238.21 68.93 238.43 69.09 144.79 204.29"/><polygon class="cls-4" points="156.06 210.81 155.82 210.69 226.94 62.41 227.18 62.53 156.06 210.81"/><polygon class="cls-4" points="168.22 215.47 167.96 215.4 214.78 57.75 215.04 57.82 168.22 215.47"/><polygon class="cls-4" points="179.81 218 179.54 217.96 203.19 55.22 203.46 55.26 179.81 218"/></g><g><path class="cls-6" d="M246.97,90.17c10.58,30.18-2.88,45.42-11.46,39.48,0,0,1.88,6.58,13.23,4.73,16.89-2.75,1.85,32.32,5.91,36.44,0,0-.87-5.03,2.78-3.94,3.33,.99,6.21,8.43-3.55,23.26,12.35-14.39,19.84-33.08,19.84-53.53,0-45.41-36.81-82.23-82.23-82.23,0,0,44.3,3.91,55.48,35.79Z"/><path class="cls-6" d="M154.81,63.02c-26.99,13.48-45.54,41.36-45.54,73.59,0,29.62,15.67,55.58,39.17,70.05-26.95-19.43-20.84-34.48-20.84-34.48-6.03-1.93-4.61-19.36,6.59-10.69,0,0-19.67-21.18-17.09-44.78,3.89-35.61,36.35-52.68,37.72-53.69Z"/></g><g><path class="cls-3" d="M217.24,169.01h-2.93l5.21,14.45c.16,.45,.1,.94-.18,1.33-.28,.39-.71,.62-1.19,.62h-37.02c-.48,0-.92-.23-1.19-.62s-.34-.88-.18-1.33l5.21-14.45h-2.93l-4.87,13.51c-.67,1.86,.03,4.04,1.91,5.12,.64,.37,1.38,.53,2.11,.53h36.97c1.98,0,3.79-1.4,4.17-3.54,.13-.73,.03-1.48-.23-2.17l-4.85-13.45Z"/><path class="cls-3" d="M215.37,143.83h-25.43l-11.4-49.48c-1.2-5.23-5.86-8.93-11.22-8.93-7.4,0-12.88,6.89-11.22,14.1l13.48,58.48s.01,.05,.02,.08l.09,.37c.04,.18,.1,.35,.14,.52,.02,.07,.04,.14,.06,.22,1.01,3.35,3.47,5.99,6.58,7.29,.09,.04,.19,.08,.28,.11,.16,.06,.33,.12,.49,.18,1.23,.43,2.54,.68,3.91,.68h34.21c6.53,0,11.82-5.29,11.82-11.82s-5.29-11.82-11.82-11.82Z"/><path class="cls-3" d="M211.53,126.03h-24.1l2.42,10.52h21.68c2.9,0,5.26-2.35,5.26-5.26s-2.35-5.26-5.26-5.26Z"/></g></g><g><g><path class="cls-6" d="M153,317.04c2.86,1.61,.26,7.42-2.79,6.77-1.12-.27-1.26-1.88-.43-2.53-1.05,.64-1.68,1.77-1.94,2.93-.94,5.32,2.41,9.34,7.92,8.51,3.59-.58,5.86-4.3,5.28-7.91,.06,.39,.06,.83-.1,1.22-.15,.44-.71,.62-1.11,.39-.22-.12-.27-.4-.25-.63,.05-.62,.27-1.2,.39-1.8,.41-1.56,.24-3.18-.46-4.63-.63-1.45-1.79-2.69-3.37-3.04-.77-.19-1.58-.18-2.38-.09-.42,.03-.9-.01-1.19-.36-.28-.33-.25-.91,.1-1.17,0,0,.02,.02,.02,.02-.19,.19-.35,.38-.44,.61-.28,.67,.16,1.39,.75,1.7h0Zm-.24,.44c-.79-.4-1.3-1.5-.74-2.27,.17-.24,.4-.4,.65-.5,0,0,.02,.02,.02,.02-.24,.28-.23,.78,0,1.05,.25,.28,.68,.33,1.06,.29,3.34-.59,5.63,1.12,6.54,4.3,.37,1.2,.28,2.5-.04,3.69-.14,.59-.38,1.15-.46,1.74-.08,.46,.28,.61,.66,.53,.59-.2,.58-1,.6-1.53,1.44,3.64-1.1,8.28-5.11,8.89-5.12,.84-9.13-2.46-8.83-7.72,.07-1.85,.9-3.92,2.68-4.7-.67,.68-.53,2.07,.49,2.28,2.55,.47,4.88-4.73,2.49-6.07h0Z"/><path class="cls-6" d="M150.84,321.24c.03-.25-.08-.47-.14-.7-.13-.34-.18-.86,.25-1.05,.26-.18,.33-.57,.4-.87,0,0,.04-.19,.04-.19,.55,.36,.67,1.07,.46,1.64-.19,.51-.58,.85-1,1.17h0Zm0-.01c.56-.66,1.29-1.73,.54-2.5,0,0,.18-.07,.18-.07-.09,.37-.17,.8-.53,1.02-.49,.19-.22,.8-.18,1.2,.01,.12,.03,.26-.02,.36h0Z"/></g><g><path class="cls-6" d="M182,317.24l-.3,1.25h-6.6l-1.62,4.83h.04c.42-.42,.92-.72,1.51-.91,.59-.19,1.19-.28,1.81-.28s1.23,.12,1.75,.35,.96,.54,1.32,.94c.36,.4,.64,.86,.83,1.4,.19,.54,.29,1.13,.29,1.76,0,.86-.14,1.65-.41,2.37-.27,.72-.67,1.34-1.18,1.85s-1.12,.92-1.82,1.21c-.71,.29-1.49,.43-2.35,.43-.7,0-1.34-.1-1.9-.31-.56-.21-1.04-.51-1.42-.91-.39-.4-.68-.88-.87-1.45-.19-.57-.27-1.2-.23-1.91h1.36c-.1,1.09,.14,1.94,.72,2.54,.58,.6,1.41,.91,2.49,.91,.65,0,1.23-.12,1.75-.37,.52-.24,.96-.57,1.34-.99,.37-.42,.66-.89,.86-1.43s.3-1.11,.3-1.71c0-1.05-.27-1.9-.81-2.55-.54-.65-1.37-.98-2.49-.98-.69,0-1.33,.13-1.92,.39s-1.06,.71-1.42,1.36l-1.21-.11,2.48-7.68h7.7Z"/><path class="cls-6" d="M185.17,331.96c-.53-.32-.95-.74-1.26-1.26-.31-.53-.53-1.12-.65-1.79s-.2-1.35-.2-2.04c0-.63,.05-1.32,.16-2.06,.11-.74,.28-1.48,.52-2.21,.24-.73,.53-1.45,.89-2.13,.35-.69,.78-1.3,1.27-1.82,.5-.53,1.06-.95,1.69-1.26s1.34-.47,2.11-.47,1.48,.14,2.03,.42c.55,.28,.98,.66,1.32,1.15s.57,1.05,.71,1.68c.14,.63,.22,1.31,.22,2.03,0,.68-.05,1.4-.16,2.17-.11,.77-.27,1.54-.5,2.3-.22,.76-.51,1.49-.87,2.19-.36,.7-.79,1.31-1.29,1.84-.5,.53-1.08,.96-1.74,1.27-.65,.32-1.4,.47-2.23,.47s-1.47-.16-2-.47Zm7.31-11.4c-.09-.47-.25-.9-.47-1.27-.23-.37-.55-.67-.94-.89-.39-.22-.9-.34-1.52-.34s-1.17,.16-1.66,.49c-.49,.32-.93,.75-1.31,1.28s-.71,1.13-.98,1.79c-.27,.66-.5,1.34-.67,2.03s-.3,1.35-.39,1.99-.13,1.2-.13,1.67c0,.52,.05,1.02,.14,1.5,.09,.48,.26,.91,.5,1.28,.24,.37,.55,.67,.95,.9,.39,.22,.9,.33,1.5,.33s1.17-.16,1.67-.48c.49-.32,.93-.75,1.31-1.27,.38-.52,.71-1.12,.97-1.79,.26-.67,.48-1.35,.66-2.04,.17-.69,.3-1.36,.38-2,.08-.65,.12-1.21,.12-1.68,0-.52-.04-1.01-.13-1.49Z"/><path class="cls-6" d="M195.04,333.88c.16-.15,.29-.31,.4-.49s.2-.38,.27-.6c.07-.22,.14-.44,.19-.66h-.9l.52-2.28h1.81l-.71,3c-.09,.35-.19,.64-.32,.87s-.28,.44-.46,.62c-.18,.17-.4,.32-.65,.43-.26,.12-.56,.22-.91,.3l.17-.86c.24-.07,.44-.18,.6-.32Z"/><path class="cls-6" d="M203.15,331.96c-.53-.32-.95-.74-1.26-1.26-.31-.53-.53-1.12-.65-1.79s-.2-1.35-.2-2.04c0-.63,.05-1.32,.16-2.06,.11-.74,.28-1.48,.52-2.21,.24-.73,.53-1.45,.89-2.13,.35-.69,.78-1.3,1.27-1.82,.5-.53,1.06-.95,1.69-1.26s1.34-.47,2.11-.47,1.48,.14,2.03,.42c.55,.28,.98,.66,1.32,1.15s.57,1.05,.71,1.68c.14,.63,.22,1.31,.22,2.03,0,.68-.05,1.4-.16,2.17-.11,.77-.27,1.54-.5,2.3-.22,.76-.51,1.49-.87,2.19-.36,.7-.79,1.31-1.29,1.84-.5,.53-1.08,.96-1.74,1.27-.65,.32-1.4,.47-2.23,.47s-1.47-.16-2-.47Zm7.31-11.4c-.09-.47-.25-.9-.47-1.27-.23-.37-.55-.67-.94-.89-.39-.22-.9-.34-1.52-.34s-1.17,.16-1.66,.49c-.49,.32-.93,.75-1.31,1.28s-.71,1.13-.98,1.79c-.27,.66-.5,1.34-.67,2.03s-.3,1.35-.39,1.99-.13,1.2-.13,1.67c0,.52,.05,1.02,.14,1.5,.09,.48,.26,.91,.5,1.28,.24,.37,.55,.67,.95,.9,.39,.22,.9,.33,1.5,.33s1.17-.16,1.67-.48c.49-.32,.93-.75,1.31-1.27,.38-.52,.71-1.12,.97-1.79,.26-.67,.48-1.35,.66-2.04,.17-.69,.3-1.36,.38-2,.08-.65,.12-1.21,.12-1.68,0-.52-.04-1.01-.13-1.49Z"/><path class="cls-6" d="M215.14,331.96c-.53-.32-.95-.74-1.26-1.26-.31-.53-.53-1.12-.66-1.79s-.19-1.35-.19-2.04c0-.63,.05-1.32,.16-2.06,.11-.74,.28-1.48,.52-2.21,.24-.73,.53-1.45,.88-2.13,.35-.69,.78-1.3,1.27-1.82,.5-.53,1.06-.95,1.69-1.26,.63-.32,1.34-.47,2.11-.47s1.48,.14,2.03,.42c.55,.28,.98,.66,1.31,1.15s.57,1.05,.71,1.68c.14,.63,.22,1.31,.22,2.03,0,.68-.05,1.4-.16,2.17-.11,.77-.27,1.54-.49,2.3-.22,.76-.51,1.49-.87,2.19-.36,.7-.79,1.31-1.29,1.84-.5,.53-1.08,.96-1.73,1.27-.65,.32-1.4,.47-2.23,.47s-1.47-.16-2.01-.47Zm7.31-11.4c-.09-.47-.24-.9-.47-1.27-.23-.37-.54-.67-.94-.89-.4-.22-.9-.34-1.52-.34s-1.17,.16-1.66,.49c-.49,.32-.92,.75-1.3,1.28s-.71,1.13-.98,1.79c-.27,.66-.5,1.34-.67,2.03s-.3,1.35-.39,1.99-.13,1.2-.13,1.67c0,.52,.05,1.02,.14,1.5,.09,.48,.26,.91,.49,1.28,.24,.37,.55,.67,.95,.9,.4,.22,.89,.33,1.5,.33s1.18-.16,1.67-.48c.5-.32,.94-.75,1.32-1.27,.38-.52,.7-1.12,.97-1.79,.27-.67,.49-1.35,.66-2.04,.17-.69,.3-1.36,.38-2s.12-1.21,.12-1.68c0-.52-.04-1.01-.13-1.49Z"/><path class="cls-6" d="M227.12,331.96c-.53-.32-.95-.74-1.26-1.26-.31-.53-.53-1.12-.66-1.79s-.19-1.35-.19-2.04c0-.63,.05-1.32,.16-2.06,.11-.74,.28-1.48,.52-2.21s.53-1.45,.88-2.13c.35-.69,.78-1.3,1.27-1.82,.5-.53,1.06-.95,1.69-1.26,.63-.32,1.34-.47,2.11-.47s1.48,.14,2.03,.42,.98,.66,1.32,1.15c.33,.49,.57,1.05,.71,1.68,.15,.63,.22,1.31,.22,2.03,0,.68-.05,1.4-.16,2.17s-.27,1.54-.5,2.3c-.22,.76-.51,1.49-.87,2.19-.36,.7-.79,1.31-1.29,1.84-.5,.53-1.08,.96-1.74,1.27s-1.4,.47-2.23,.47-1.47-.16-2.01-.47Zm7.31-11.4c-.09-.47-.25-.9-.47-1.27-.23-.37-.54-.67-.94-.89-.4-.22-.9-.34-1.52-.34s-1.17,.16-1.66,.49c-.49,.32-.93,.75-1.31,1.28s-.71,1.13-.98,1.79c-.27,.66-.49,1.34-.67,2.03s-.3,1.35-.39,1.99-.13,1.2-.13,1.67c0,.52,.05,1.02,.14,1.5,.09,.48,.26,.91,.5,1.28,.24,.37,.55,.67,.95,.9,.39,.22,.89,.33,1.5,.33s1.17-.16,1.67-.48,.93-.75,1.31-1.27c.38-.52,.71-1.12,.97-1.79,.26-.67,.48-1.35,.66-2.04,.17-.69,.3-1.36,.38-2,.08-.65,.12-1.21,.12-1.68,0-.52-.04-1.01-.13-1.49Z"/></g></g><g><path class="cls-6" d="M146.44,261.6h2.75v6.36h.05c.19-.3,.43-.58,.7-.82,.27-.24,.57-.44,.9-.61,.33-.17,.67-.3,1.04-.39,.36-.09,.72-.13,1.07-.13,.98,0,1.84,.17,2.57,.52,.73,.35,1.34,.82,1.82,1.42,.48,.6,.84,1.31,1.08,2.11,.24,.8,.36,1.66,.36,2.58,0,.84-.11,1.65-.33,2.44-.22,.79-.55,1.48-.99,2.08-.44,.6-1,1.08-1.67,1.45-.67,.36-1.47,.54-2.39,.54-.42,0-.84-.03-1.26-.08s-.83-.16-1.22-.33c-.39-.16-.74-.37-1.05-.63-.31-.26-.57-.6-.78-1.01h-.05v1.71h-2.6v-17.2Zm9.59,10.99c0-.56-.07-1.11-.22-1.64s-.36-1-.65-1.41c-.29-.41-.65-.74-1.08-.99-.43-.25-.93-.37-1.49-.37-1.16,0-2.03,.4-2.62,1.21-.59,.8-.88,1.87-.88,3.2,0,.63,.08,1.21,.23,1.75,.15,.54,.38,1,.69,1.39,.3,.39,.67,.69,1.1,.92,.43,.23,.92,.34,1.48,.34,.63,0,1.15-.13,1.59-.38,.43-.26,.79-.59,1.07-1,.28-.41,.48-.88,.6-1.4,.12-.52,.18-1.06,.18-1.6Z"/><path class="cls-6" d="M172.03,278.8h-2.7v-1.73h-.05c-.34,.63-.84,1.13-1.51,1.51-.67,.38-1.35,.56-2.04,.56-1.64,0-2.82-.41-3.55-1.22-.73-.81-1.1-2.04-1.1-3.67v-7.9h2.75v7.64c0,1.09,.21,1.86,.63,2.31,.42,.45,1,.67,1.76,.67,.58,0,1.06-.09,1.45-.26s.7-.41,.94-.71c.24-.3,.41-.65,.52-1.07,.11-.42,.16-.87,.16-1.35v-7.23h2.75v12.46Z"/><path class="cls-6" d="M176.99,274.8c.08,.8,.39,1.36,.92,1.69s1.16,.48,1.9,.48c.26,0,.55-.02,.88-.06,.33-.04,.64-.12,.93-.23,.29-.11,.53-.27,.71-.49s.27-.5,.25-.86c-.02-.35-.15-.64-.39-.87-.24-.22-.55-.4-.93-.54-.38-.14-.81-.25-1.29-.35-.48-.1-.97-.2-1.47-.31-.51-.11-1.01-.25-1.48-.41-.47-.16-.9-.38-1.28-.65-.38-.27-.68-.62-.9-1.05-.22-.42-.34-.95-.34-1.58,0-.67,.16-1.24,.49-1.7,.33-.46,.75-.83,1.25-1.11,.51-.28,1.07-.48,1.69-.59,.62-.11,1.21-.17,1.77-.17,.64,0,1.25,.07,1.84,.21,.59,.14,1.12,.36,1.59,.66,.47,.3,.87,.7,1.18,1.19,.31,.49,.51,1.08,.59,1.77h-2.87c-.13-.66-.43-1.1-.9-1.33-.47-.23-1.02-.34-1.63-.34-.19,0-.42,.02-.69,.05-.26,.03-.51,.09-.75,.18s-.43,.22-.59,.38-.24,.39-.24,.66c0,.34,.12,.61,.35,.82,.23,.21,.54,.38,.92,.52,.38,.14,.81,.25,1.29,.35,.48,.1,.98,.2,1.49,.31,.5,.11,.99,.25,1.47,.41,.48,.16,.91,.38,1.29,.65,.38,.27,.68,.62,.92,1.04,.23,.42,.35,.93,.35,1.54,0,.74-.17,1.36-.51,1.88s-.78,.93-1.31,1.25c-.54,.32-1.14,.55-1.8,.7-.66,.14-1.31,.22-1.95,.22-.79,0-1.51-.09-2.18-.26s-1.25-.45-1.74-.81c-.49-.36-.87-.81-1.15-1.35-.28-.54-.43-1.18-.45-1.92h2.75Z"/><path class="cls-6" d="M187.5,261.6h2.75v2.6h-2.75v-2.6Zm0,4.75h2.75v12.46h-2.75v-12.46Z"/><path class="cls-6" d="M193.23,266.34h2.6v1.83l.05,.05c.42-.69,.96-1.23,1.64-1.63,.67-.39,1.42-.59,2.24-.59,1.37,0,2.44,.35,3.23,1.06,.79,.71,1.18,1.77,1.18,3.18v8.55h-2.75v-7.83c-.03-.98-.24-1.69-.63-2.13-.39-.44-.99-.66-1.81-.66-.47,0-.88,.08-1.25,.25s-.68,.4-.94,.7c-.26,.3-.46,.65-.6,1.05-.15,.4-.22,.83-.22,1.28v7.35h-2.75v-12.46Z"/><path class="cls-6" d="M209.2,273.28c0,.48,.07,.95,.2,1.4,.14,.45,.34,.84,.62,1.18,.27,.34,.62,.61,1.04,.81,.42,.2,.92,.3,1.49,.3,.8,0,1.45-.17,1.94-.52s.85-.86,1.1-1.55h2.6c-.14,.67-.39,1.27-.75,1.81-.35,.53-.78,.97-1.28,1.34-.5,.36-1.06,.63-1.67,.82-.62,.19-1.26,.28-1.94,.28-.98,0-1.85-.16-2.6-.48s-1.39-.77-1.92-1.35-.92-1.27-1.18-2.07c-.26-.8-.4-1.69-.4-2.65,0-.88,.14-1.72,.42-2.52,.28-.8,.68-1.49,1.21-2.1,.52-.6,1.15-1.08,1.89-1.43s1.57-.53,2.51-.53c.98,0,1.86,.21,2.64,.61,.78,.41,1.43,.95,1.94,1.63s.89,1.45,1.12,2.33c.23,.87,.29,1.78,.18,2.71h-9.15Zm6.41-1.81c-.03-.43-.13-.85-.28-1.25-.15-.4-.36-.75-.63-1.05s-.59-.54-.96-.72c-.38-.18-.8-.28-1.26-.28s-.92,.08-1.31,.25c-.39,.17-.73,.4-1.01,.7-.28,.3-.51,.65-.67,1.05s-.26,.84-.28,1.3h6.41Z"/><path class="cls-6" d="M222.53,274.8c.08,.8,.39,1.36,.92,1.69s1.16,.48,1.9,.48c.26,0,.55-.02,.88-.06,.33-.04,.64-.12,.93-.23,.29-.11,.53-.27,.71-.49s.27-.5,.25-.86c-.02-.35-.15-.64-.39-.87-.24-.22-.55-.4-.93-.54-.38-.14-.81-.25-1.29-.35-.48-.1-.97-.2-1.47-.31-.51-.11-1.01-.25-1.48-.41-.47-.16-.9-.38-1.28-.65-.38-.27-.68-.62-.9-1.05-.22-.42-.34-.95-.34-1.58,0-.67,.16-1.24,.49-1.7,.33-.46,.75-.83,1.25-1.11,.51-.28,1.07-.48,1.69-.59,.62-.11,1.21-.17,1.77-.17,.64,0,1.25,.07,1.84,.21,.59,.14,1.12,.36,1.59,.66,.47,.3,.87,.7,1.18,1.19,.31,.49,.51,1.08,.59,1.77h-2.87c-.13-.66-.43-1.1-.9-1.33-.47-.23-1.02-.34-1.63-.34-.19,0-.42,.02-.69,.05-.26,.03-.51,.09-.75,.18s-.43,.22-.59,.38-.24,.39-.24,.66c0,.34,.12,.61,.35,.82,.23,.21,.54,.38,.92,.52,.38,.14,.81,.25,1.29,.35,.48,.1,.98,.2,1.49,.31,.5,.11,.99,.25,1.47,.41,.48,.16,.91,.38,1.29,.65,.38,.27,.68,.62,.92,1.04,.23,.42,.35,.93,.35,1.54,0,.74-.17,1.36-.51,1.88s-.78,.93-1.31,1.25c-.54,.32-1.14,.55-1.8,.7-.66,.14-1.31,.22-1.95,.22-.79,0-1.51-.09-2.18-.26s-1.25-.45-1.74-.81c-.49-.36-.87-.81-1.15-1.35-.28-.54-.43-1.18-.45-1.92h2.75Z"/><path class="cls-6" d="M235.03,274.8c.08,.8,.39,1.36,.92,1.69s1.16,.48,1.9,.48c.26,0,.55-.02,.88-.06,.33-.04,.64-.12,.93-.23,.29-.11,.53-.27,.71-.49s.27-.5,.25-.86c-.02-.35-.15-.64-.39-.87-.24-.22-.55-.4-.93-.54-.38-.14-.81-.25-1.29-.35-.48-.1-.97-.2-1.47-.31-.51-.11-1.01-.25-1.48-.41-.47-.16-.9-.38-1.28-.65-.38-.27-.68-.62-.9-1.05-.22-.42-.34-.95-.34-1.58,0-.67,.16-1.24,.49-1.7,.33-.46,.75-.83,1.25-1.11,.51-.28,1.07-.48,1.69-.59,.62-.11,1.21-.17,1.77-.17,.64,0,1.25,.07,1.84,.21,.59,.14,1.12,.36,1.59,.66,.47,.3,.87,.7,1.18,1.19,.31,.49,.51,1.08,.59,1.77h-2.87c-.13-.66-.43-1.1-.9-1.33-.47-.23-1.02-.34-1.63-.34-.19,0-.42,.02-.69,.05-.26,.03-.51,.09-.75,.18s-.43,.22-.59,.38-.24,.39-.24,.66c0,.34,.12,.61,.35,.82,.23,.21,.54,.38,.92,.52,.38,.14,.81,.25,1.29,.35,.48,.1,.98,.2,1.49,.31,.5,.11,.99,.25,1.47,.41,.48,.16,.91,.38,1.29,.65,.38,.27,.68,.62,.92,1.04,.23,.42,.35,.93,.35,1.54,0,.74-.17,1.36-.51,1.88s-.78,.93-1.31,1.25c-.54,.32-1.14,.55-1.8,.7-.66,.14-1.31,.22-1.95,.22-.79,0-1.51-.09-2.18-.26s-1.25-.45-1.74-.81c-.49-.36-.87-.81-1.15-1.35-.28-.54-.43-1.18-.45-1.92h2.75Z"/></g><g><rect class="cls-3" x="27.5" y="348.65" width="328" height="1"/><rect class="cls-3" x="27.5" y="298.87" width="328" height="1"/></g></svg>