<?xml version="1.0" encoding="UTF-8"?><svg id="Layer_1" xmlns="http://www.w3.org/2000/svg" viewBox="0 0 383 629.65"><defs><style>.cls-1{fill:#f7f8f8;}.cls-2{fill:#efeff0;}.cls-3{fill:#9298af;}.cls-4{fill:#b9bccb;}.cls-5{fill:#c9caca;}.cls-6{fill:#233764;}</style></defs><g><path class="cls-4" d="M204.16,581.74c-.71,.17-1.22,.43-1.59,.73v-.86h-1.54v7.14h1.54v-3.87c.02-.77,.14-1.51,1.14-2.02,1.34-.69,3.1,.03,3.1,2.45v3.44h1.54v-3.44h0v-.42c0-2.42-2.2-3.65-4.2-3.17Z"/><path class="cls-4" d="M186.79,581.62c-3.94,0-3.67,3.94-3.67,4.1,.05,1.74,1.59,3.3,3.73,3.3,2.4,0,3.49-1.28,3.73-2.5h-1.33s-.56,1.39-2.39,1.39-2.55-1.59-2.55-2.19h6.37s.36-4.09-3.9-4.09Zm2.58,3.07h-2.52s-2.52,0-2.52,0c0-.08,.1-2.04,2.44-2.04,2.64,0,2.59,2.04,2.59,2.04Z"/><polygon class="cls-4" points="176.18 578.64 174.64 578.64 174.64 588.79 176.18 588.79 176.18 588.79 181.93 588.79 181.93 587.52 176.18 587.52 176.18 578.64"/><path class="cls-4" d="M195.44,581.74c-.71,.17-1.22,.43-1.58,.73v-3.83h-1.54v10.12h1.54v-3.96c.03-.73,.18-1.44,1.14-1.93,1.34-.69,3.1,.03,3.1,2.45v3.44h1.54v-3.44h0v-.42c0-2.42-2.2-3.65-4.2-3.17Z"/><polygon class="cls-4" points="188.39 578.64 186.91 578.64 186.5 580.84 187.15 580.84 188.39 578.64"/></g><g><g><path class="cls-3" d="M177.57,370.47l-.35-.43c1.32-.64,2.24-1.81,2.34-3.02h-2.09v-.48h2.71c-.03,1.79-1.07,3.1-2.61,3.94Zm3.68,1.09v-5.62h.57v5.62h-.57Z"/><path class="cls-3" d="M183.54,370.05h-.54v-3.49h.57v3.01c.55,0,1.4-.06,1.79-.17,.03,.15,.06,.31,.08,.47-.41,.1-1.22,.17-1.9,.18Zm3.44,1.5v-2.96h-.69v2.68h-.54v-5.22h.54v2.07h.69v-2.19h.55v5.62h-.55Z"/><path class="cls-3" d="M191.68,366.36c1,0,1.44,.87,1.44,1.99s-.44,1.99-1.44,1.99-1.45-.87-1.45-1.99,.45-1.98,1.45-1.98Zm0,.49c-.57,0-.87,.63-.87,1.5s.3,1.49,.87,1.49,.87-.62,.87-1.49-.3-1.5-.87-1.5Zm2.42,4.71v-5.62h.57v5.62h-.57Z"/><path class="cls-3" d="M195.57,367.43v-.46h2.89v.46h-2.89Zm1.46,2.01c-.77,0-1.22-.35-1.22-.89s.44-.91,1.22-.91,1.21,.36,1.21,.91-.44,.89-1.21,.89Zm-.78-2.8v-.46h1.47v.46h-1.47Zm.78,1.49c-.42,0-.67,.17-.67,.42s.25,.42,.67,.42,.66-.17,.66-.42-.24-.42-.66-.42Zm1.48,3.43c-1.19,0-1.91-.37-1.91-.98s.72-.97,1.91-.97,1.9,.37,1.9,.97-.71,.98-1.9,.98Zm-1.33-.98c0,.33,.51,.53,1.33,.53s1.32-.21,1.32-.53-.51-.53-1.32-.53-1.33,.21-1.33,.53Zm2.62-.95v-1.63h-.62v1.43h-.54v-3.38h.54v1.49h.62v-1.59h.55v3.68h-.55Z"/><path class="cls-3" d="M204.23,368.95c-.5-.22-1.11-.75-1.35-1.31-.17,.58-.77,1.17-1.41,1.49l-.35-.44c.79-.34,1.46-1.06,1.46-1.98v-.55h.59v.52c0,.93,.75,1.61,1.39,1.83l-.33,.44Zm.97,2.6v-1.52h-3.2v-.46h3.77v1.99h-.57Zm0-2.29v-3.33h.57v3.33h-.57Z"/></g><g><path class="cls-6" d="M181.28,387.52l-.71-.89c2.72-1.31,4.6-3.73,4.81-6.21h-4.3v-.99h5.57c-.07,3.68-2.21,6.37-5.37,8.09Zm7.58,2.23v-11.56h1.18v11.56h-1.18Z"/><path class="cls-6" d="M197.78,383.26v1.32h4.65v.95h-10.43v-.95h4.6v-1.32h-3.24v-4.67h1.16v1.47h5.38v-1.48h1.18v4.68h-3.3Zm-4.47,6.14v-3.13h1.18v2.18h6.7v.95h-7.88Zm6.6-8.38h-5.38v1.28h5.38v-1.28Z"/></g></g><g><g><path class="cls-6" d="M183.78,425.45h1.75v.94h-4.64v4.71h-1.18v-4.71h-4.62v-.94h7.54c.29-1.18,.38-2.84,.38-4.1h-6.72v-.97h7.91c0,1.69-.09,3.44-.42,5.06Z"/><path class="cls-6" d="M192.48,425.83c-1.03-.46-2.16-1.4-2.62-2.55-.36,1.2-1.53,2.33-2.78,2.9l-.73-.91c1.67-.71,2.9-2.1,2.9-3.91v-1.16h1.19v1.11c0,1.82,1.4,3.16,2.72,3.62l-.69,.91Zm-.26,5.26c-2.47,0-3.89-.86-3.89-2.23s1.41-2.25,3.89-2.25,3.9,.87,3.9,2.25-1.4,2.23-3.9,2.23Zm-2.7-2.23c0,.81,1.01,1.3,2.7,1.3s2.71-.49,2.71-1.3-.99-1.31-2.71-1.31-2.7,.5-2.7,1.31Zm3.11-5.78v-.95h2.22v-2.59h1.18v7.06h-1.18v-3.52h-2.22Z"/><path class="cls-6" d="M201.53,425.29v-.3c0-3.2,1.83-4.4,4.09-4.4,.93,0,1.64,.18,2.18,.49v.97c-.74-.28-1.39-.46-2.27-.46-1.57,0-2.74,.93-2.74,3.23v.48c0,2.2,.81,3.49,2.8,3.49,1.07,0,1.75-.3,2.31-.57v.99c-.62,.36-1.45,.57-2.49,.57-2.37,0-3.89-1.45-3.89-4.47Z"/></g><g><path class="cls-3" d="M182.3,407.98c.91,0,1.36,.74,1.43,1.73h1.14v-2.13h.57v5.62h-.57v-3.01h-1.14c-.06,1-.5,1.76-1.43,1.76-1,0-1.45-.87-1.45-1.99s.45-1.99,1.45-1.99Zm0,.49c-.57,0-.86,.63-.86,1.5s.29,1.49,.86,1.49,.87-.63,.87-1.49-.3-1.5-.87-1.5Z"/><path class="cls-3" d="M186.56,411.73v-3.53h2.24v1.47h.71v-1.96h.54v5.21h-.54v-2.8h-.71v1.59h-2.24Zm1.69-3.07h-1.15v2.62h1.15v-2.62Zm2.33,4.55v-5.62h.55v5.62h-.55Z"/><path class="cls-3" d="M195.54,411.55c-.66,.16-1.92,.26-2.72,.27h-.53v-3.65h.57v3.16c.74,0,1.95-.09,2.6-.24l.07,.46Zm1.02,1.66h-.57v-5.62h.57v5.62Z"/><path class="cls-3" d="M201.05,411.68c-.59,.12-1.63,.18-2.67,.19-.19,0-.38,0-.57,0v-3.77h2.65v.46h-2.08v1.13h1.97v.46h-1.97v1.24c.93,0,2.02-.05,2.6-.18l.08,.46Zm.53,1.52v-5.62h.57v5.62h-.57Z"/></g></g><g><path class="cls-6" d="M189.32,511.34h4.35v.97h-4.35v-.97Z"/><g><path class="cls-3" d="M179.91,496.59v-3.74h.57v1.4h1.58v-1.41h.57v3.75h-2.71Zm2.15-1.88h-1.58v1.42h1.58v-1.42Zm1.65,3.27v-5.62h.57v5.62h-.57Z"/><path class="cls-3" d="M188.18,496.68c-.55-.31-1.18-1.01-1.36-1.63-.17,.64-.73,1.36-1.41,1.77l-.37-.42c.87-.5,1.48-1.45,1.48-2.51v-.46h-1.27v-.47h3.09v.47h-1.24v.46c0,1.09,.61,1.94,1.41,2.38l-.33,.42Zm1.36-1.59v2.9h-.57v-5.62h.57v2.24h.88v.48h-.88Z"/><path class="cls-3" d="M192.64,495.09v-2.5h.57v.78h1.52v-.79h.57v2.51h-2.66Zm.59,2.86v-1.43h3v-.48h-3.05v-.46h3.62v1.37h-3.01v.54h3.21v.46h-3.77Zm1.5-4.12h-1.52v.8h1.52v-.8Zm2.07,.23v1.22h-.57v-2.91h.57v1.22h.84v.47h-.84Z"/><path class="cls-3" d="M202.24,494.67h.85v.47h-5.07v-.47h3.67c.09-.42,.15-1.16,.15-1.59h-3.16v-.46h3.74c0,.73-.06,1.49-.18,2.04Zm-3.58,3.24v-2.3h.57v.69h2.64v-.7h.57v2.32h-3.78Zm3.21-1.16h-2.64v.71h2.64v-.71Z"/></g></g><g><g><path class="cls-6" d="M170.55,470.2l-.71-.89c2.72-1.31,4.6-3.73,4.81-6.21h-4.3v-.99h5.57c-.07,3.68-2.21,6.37-5.37,8.09Zm7.58,2.23v-11.56h1.18v11.56h-1.18Z"/><path class="cls-6" d="M187.04,465.94v1.32h4.66v.95h-10.43v-.95h4.6v-1.32h-3.24v-4.67h1.16v1.47h5.38v-1.48h1.18v4.68h-3.31Zm-4.47,6.14v-3.13h1.18v2.18h6.7v.95h-7.88Zm6.6-8.38h-5.38v1.28h5.38v-1.28Z"/><path class="cls-6" d="M196.33,470.45l.24-.9c.49,.33,1.39,.58,2.05,.58,1.41,0,2.21-.62,2.21-1.72s-.83-1.61-2.14-1.61h-.86v-.97h.78c1.12-.01,1.89-.57,1.89-1.52,0-1.06-.69-1.43-1.75-1.43-.71,0-1.4,.3-1.94,.61l-.17-.93c.54-.34,1.57-.66,2.37-.66,1.61,0,2.7,.81,2.7,2.22,0,1.07-.67,1.73-1.68,2.08,1.15,.21,2,.86,2,2.24,0,1.57-1.26,2.64-3.24,2.64-1.04,0-1.94-.29-2.45-.63Z"/><path class="cls-6" d="M209.51,463.89c0,1.55-1.3,2.56-2.95,2.56s-2.96-.98-2.96-2.55,1.3-2.64,2.96-2.64,2.95,1.07,2.95,2.63Zm-4.76,0c0,.94,.78,1.59,1.81,1.59,1.08,0,1.8-.69,1.8-1.59,0-.95-.7-1.63-1.8-1.63-1.01,0-1.81,.67-1.81,1.63Zm.5,8.46v-2.98h6.33v-1.07h-6.37v-.95h7.55v2.9h-6.35v1.14h6.76v.97h-7.92Zm6.33-5.59v-5.88h1.18v5.88h-1.18Z"/></g><g><path class="cls-3" d="M178.53,449.66c1,0,1.44,.87,1.44,1.99s-.44,1.99-1.44,1.99-1.45-.87-1.45-1.99,.45-1.98,1.45-1.98Zm0,.49c-.57,0-.87,.63-.87,1.5s.3,1.49,.87,1.49,.87-.62,.87-1.49-.3-1.5-.87-1.5Zm2.42,4.71v-5.62h.57v5.62h-.57Z"/><path class="cls-3" d="M182.42,450.74v-.46h2.89v.46h-2.89Zm1.46,2.01c-.77,0-1.22-.35-1.22-.89s.44-.91,1.22-.91,1.21,.36,1.21,.91-.44,.89-1.21,.89Zm-.78-2.8v-.46h1.47v.46h-1.47Zm.78,1.49c-.42,0-.67,.17-.67,.42s.25,.42,.67,.42,.66-.17,.66-.42-.24-.42-.66-.42Zm1.48,3.43c-1.19,0-1.91-.37-1.91-.98s.72-.97,1.91-.97,1.9,.37,1.9,.97-.71,.98-1.9,.98Zm-1.33-.98c0,.33,.51,.53,1.33,.53s1.32-.21,1.32-.53-.51-.53-1.32-.53-1.33,.21-1.33,.53Zm2.62-.95v-1.63h-.62v1.43h-.54v-3.38h.54v1.49h.62v-1.59h.55v3.68h-.55Z"/><path class="cls-3" d="M190.06,453.77l-.35-.43c1.32-.64,2.14-1.81,2.24-3.02h-2v-.48h2.61c-.03,1.79-.97,3.1-2.51,3.94Zm3.99-2.23h.9v.48h-.9v2.84h-.57v-5.62h.57v2.3Z"/><path class="cls-3" d="M196.92,449.66c1,0,1.44,.87,1.44,1.99s-.44,1.99-1.44,1.99-1.45-.87-1.45-1.99,.45-1.98,1.45-1.98Zm0,.49c-.57,0-.87,.63-.87,1.5s.3,1.49,.87,1.49,.87-.62,.87-1.49-.3-1.5-.87-1.5Zm2.42,4.71v-5.62h.57v5.62h-.57Z"/><path class="cls-3" d="M200.84,454.1v-.46h5.07v.46h-5.07Zm.66-1.65v-2.66h3.76v.46h-3.2v1.74h3.25v.46h-3.81Z"/></g></g><g><path class="cls-2" d="M192.87,235.32c-54.43,0-98.71-44.28-98.71-98.71s44.28-98.71,98.71-98.71,98.71,44.28,98.71,98.71-44.28,98.71-98.71,98.71Zm0-194.54c-52.84,0-95.83,42.99-95.83,95.83s42.99,95.83,95.83,95.83,95.83-42.99,95.83-95.83-42.99-95.83-95.83-95.83Z"/><circle class="cls-1" cx="192.88" cy="136.62" r="82.22"/><g><rect class="cls-5" x="192.74" y="54.4" width=".27" height="164.44"/><polygon class="cls-5" points="205.72 217.83 179.77 55.45 180.03 55.41 205.99 217.79 205.72 217.83"/><rect class="cls-5" x="192.74" y="54.4" width=".27" height="164.44" transform="translate(-32.98 66.93) rotate(-18.16)"/><polygon class="cls-5" points="230.39 209.78 155.12 63.58 155.36 63.46 230.63 209.66 230.39 209.78"/><polygon class="cls-5" points="241.47 202.95 144.06 70.46 144.28 70.29 241.69 202.78 241.47 202.95"/><polygon class="cls-5" points="251.33 194.44 134.23 78.99 134.42 78.8 251.52 194.25 251.33 194.44"/><polygon class="cls-5" points="259.72 184.49 125.87 88.97 126.03 88.75 259.88 184.27 259.72 184.49"/><polygon class="cls-5" points="266.44 173.34 119.19 100.14 119.31 99.9 266.56 173.1 266.44 173.34"/><rect class="cls-5" x="192.74" y="54.4" width=".27" height="164.44" transform="translate(4.95 279.97) rotate(-72.65)"/><polygon class="cls-5" points="274.22 148.58 111.49 124.93 111.53 124.66 274.26 148.31 274.22 148.58"/><polygon class="cls-5" points="110.67 137.92 110.66 137.64 275.09 135.32 275.09 135.59 110.67 137.92"/><rect class="cls-5" x="110.65" y="136.48" width="164.44" height=".27" transform="translate(-20.62 35.21) rotate(-9.9)"/><polygon class="cls-5" points="115.17 163.48 115.08 163.22 270.59 109.76 270.68 110.02 115.17 163.48"/><polygon class="cls-5" points="120.38 175.41 120.25 175.17 265.37 97.83 265.5 98.07 120.38 175.41"/><polygon class="cls-5" points="127.41 186.36 127.24 186.15 258.35 86.88 258.51 87.09 127.41 186.36"/><polygon class="cls-5" points="136.08 196.07 135.88 195.88 249.67 77.17 249.87 77.36 136.08 196.07"/><polygon class="cls-5" points="146.17 204.29 145.95 204.14 239.58 68.95 239.8 69.1 146.17 204.29"/><polygon class="cls-5" points="157.44 210.81 157.2 210.7 228.31 62.43 228.56 62.54 157.44 210.81"/><polygon class="cls-5" points="169.59 215.48 169.33 215.4 216.16 57.76 216.42 57.84 169.59 215.48"/><polygon class="cls-5" points="181.18 218.01 180.91 217.97 204.57 55.23 204.84 55.27 181.18 218.01"/></g><g><path class="cls-4" d="M218.62,169.02h-2.93l5.21,14.45c.16,.45,.1,.94-.18,1.33-.28,.39-.71,.62-1.19,.62h-37.02c-.48,0-.92-.23-1.19-.62-.28-.39-.34-.88-.18-1.33l5.21-14.45h-2.93l-4.87,13.51c-.67,1.86,.03,4.03,1.91,5.12,.64,.37,1.38,.53,2.11,.53h36.96c1.98,0,3.79-1.4,4.17-3.54,.13-.73,.03-1.48-.23-2.17l-4.85-13.45Z"/><path class="cls-4" d="M216.75,143.84h-25.42l-11.4-49.47c-1.2-5.23-5.86-8.93-11.22-8.93-7.4,0-12.88,6.89-11.22,14.1l13.47,58.48s.01,.05,.02,.08l.09,.37c.04,.18,.1,.35,.14,.52,.02,.07,.04,.14,.06,.22,1.01,3.35,3.47,5.99,6.58,7.29,.09,.04,.19,.08,.28,.11,.16,.06,.33,.12,.49,.18,1.23,.43,2.54,.68,3.91,.68h34.21c6.53,0,11.82-5.29,11.82-11.82s-5.29-11.82-11.82-11.82Z"/><path class="cls-4" d="M212.91,126.04h-24.1l2.42,10.52h21.68c2.9,0,5.26-2.35,5.26-5.26s-2.35-5.26-5.26-5.26Z"/></g><path class="cls-6" d="M192.55,54.38c-18.02,0-31.58,3.91-45.16,13.71,2.36-1.49,15.12-9.42,16.5-4.37,1.49,5.45,4.57,2.56,5.51,6.95,0,0,.45-3.16-2.3-6.95-2.75-3.79,1.23-4.82,2.32-3.32,1.09,1.49,5.08,2.84,11.74-1.59,4.21-2.8,6.52-1.42,6.35,.19-.12,1.12,.69,1.06,.69,1.06,0,0-.15-.13,0-.77,.25-1.07,2.37-1.82,1.3-2.83-.76-.73-.41-1.43,1.12-.79,1.21,.51,3.71,1.72,4.9,1.31,0,0-.88-.73,1.02-.89,2.29-.19,7.3-.86,10.23-.52,.5,.06-4.95-.81-10.07-1.08-1.38-.07-4.15-.1-4.15-.1Z"/><g><path class="cls-6" d="M171.61,216.06c22.42,4.93,34.3-5.07,36.87-14.56,0,0-.62,7.92,12.6,6.2,10.7-2.51,11.49-6.66,10.41-7.21,2.55,.66,.07,2.15,3.39,1.95,1.33-.08,6.39-2.35,9.56-5.65,4.65-4.84,5.77-9.43,5.74-12.05-.04-4.01-4.6-6.23-5.2-6.51,8.12,3.54,7.26,5.51,10.86,4.94,4.2-.67,7.28-3.79,10.14-8.86,0,0,5.86-11.3,0,0-1.67,3.23-3.56,6.33-5.63,9.29-.86,1.24-1.75,2.45-2.68,3.64-.04,.05-.07,.09-.1,.14-.58,.74-1.19,1.46-1.79,2.18-.16,.18-.3,.38-.46,.56,.02-.03,.03-.05,.05-.08-2.78,3.24-5.82,6.25-9.08,9.02,.05-.02,.1-.04,.15-.07-3.1,2.66-6.41,5.08-9.88,7.26-.06,.04-.12,.08-.18,.12,0,0,0,0-.01,0-12.62,7.88-27.51,12.46-43.48,12.46-4.17,0-8.26-.31-12.27-.91"/><path class="cls-6" d="M244.99,178.23s-.07-.03-.07-.03c.02,.01,.04,.02,.07,.03Z"/></g></g><g><path class="cls-6" d="M145.13,268.87c0,.48,.07,.95,.2,1.4,.14,.45,.34,.84,.62,1.18,.27,.34,.62,.61,1.04,.81,.42,.2,.92,.3,1.49,.3,.8,0,1.45-.17,1.94-.52s.85-.86,1.1-1.55h2.6c-.14,.67-.39,1.28-.75,1.81-.35,.53-.78,.98-1.28,1.34s-1.06,.64-1.67,.82-1.26,.28-1.94,.28c-.98,0-1.85-.16-2.6-.48-.75-.32-1.39-.77-1.92-1.35s-.92-1.27-1.18-2.07c-.26-.8-.4-1.69-.4-2.65,0-.88,.14-1.72,.42-2.52,.28-.8,.68-1.49,1.21-2.1,.52-.6,1.15-1.08,1.89-1.43s1.57-.53,2.51-.53c.98,0,1.86,.21,2.64,.62,.78,.41,1.43,.95,1.94,1.63s.89,1.45,1.12,2.33c.23,.87,.29,1.78,.18,2.71h-9.15Zm6.41-1.81c-.03-.43-.13-.85-.28-1.25s-.36-.75-.63-1.05c-.26-.3-.59-.54-.96-.72-.38-.19-.8-.28-1.26-.28s-.92,.08-1.31,.25c-.39,.17-.73,.4-1.01,.7-.28,.3-.51,.65-.67,1.05s-.26,.84-.28,1.3h6.41Z"/><path class="cls-6" d="M164.79,266.1c-.11-.77-.42-1.35-.93-1.75-.51-.39-1.15-.59-1.92-.59-.35,0-.73,.06-1.13,.18-.4,.12-.77,.35-1.11,.67-.34,.33-.62,.79-.84,1.37s-.34,1.35-.34,2.3c0,.52,.06,1.03,.18,1.54,.12,.51,.31,.97,.58,1.37,.26,.4,.61,.73,1.02,.98s.92,.37,1.52,.37c.8,0,1.47-.25,1.99-.75,.52-.5,.85-1.2,.98-2.1h2.75c-.26,1.62-.87,2.86-1.84,3.72-.97,.86-2.26,1.29-3.87,1.29-.98,0-1.84-.16-2.59-.49-.75-.33-1.38-.78-1.89-1.35-.51-.57-.9-1.25-1.17-2.04s-.4-1.64-.4-2.55,.13-1.81,.39-2.63,.64-1.53,1.16-2.13c.51-.6,1.15-1.08,1.91-1.42,.76-.35,1.66-.52,2.69-.52,.72,0,1.41,.09,2.06,.28s1.23,.46,1.74,.83c.51,.37,.92,.84,1.24,1.4,.32,.56,.51,1.23,.58,2h-2.75Z"/><path class="cls-6" d="M175.49,274.73c-1,0-1.88-.16-2.66-.49-.78-.33-1.44-.78-1.98-1.36s-.95-1.27-1.23-2.07c-.28-.8-.42-1.69-.42-2.65s.14-1.82,.42-2.63c.28-.8,.69-1.49,1.23-2.07,.54-.58,1.2-1.03,1.98-1.36,.78-.33,1.67-.49,2.66-.49s1.88,.16,2.66,.49c.78,.33,1.44,.78,1.98,1.36,.54,.58,.95,1.27,1.23,2.07,.28,.8,.42,1.68,.42,2.63s-.14,1.85-.42,2.65c-.28,.8-.69,1.49-1.23,2.07-.54,.58-1.2,1.03-1.98,1.36-.78,.33-1.67,.49-2.66,.49Zm0-2.17c.61,0,1.14-.13,1.59-.38,.45-.26,.82-.59,1.11-1.01,.29-.42,.5-.89,.64-1.41,.14-.52,.21-1.06,.21-1.6s-.07-1.06-.21-1.59c-.14-.53-.35-1-.64-1.41-.29-.41-.66-.74-1.11-1-.45-.26-.98-.39-1.59-.39s-1.14,.13-1.59,.39c-.45,.26-.82,.59-1.11,1-.29,.41-.5,.88-.64,1.41-.14,.53-.21,1.06-.21,1.59s.07,1.08,.21,1.6c.14,.52,.35,.99,.64,1.41,.29,.42,.66,.75,1.11,1.01,.45,.26,.98,.38,1.59,.38Z"/><path class="cls-6" d="M184.06,261.93h2.6v1.83l.05,.05c.42-.69,.96-1.23,1.64-1.63,.67-.39,1.42-.59,2.24-.59,1.37,0,2.44,.35,3.23,1.06,.79,.71,1.18,1.77,1.18,3.18v8.55h-2.75v-7.83c-.03-.98-.24-1.69-.63-2.13-.39-.44-.99-.66-1.81-.66-.47,0-.88,.08-1.25,.25s-.68,.4-.94,.7c-.26,.3-.46,.65-.6,1.05-.15,.4-.22,.83-.22,1.28v7.35h-2.75v-12.46Z"/><path class="cls-6" d="M203.6,274.73c-1,0-1.88-.16-2.66-.49-.78-.33-1.44-.78-1.98-1.36s-.95-1.27-1.23-2.07c-.28-.8-.42-1.69-.42-2.65s.14-1.82,.42-2.63c.28-.8,.69-1.49,1.23-2.07,.54-.58,1.2-1.03,1.98-1.36,.78-.33,1.67-.49,2.66-.49s1.88,.16,2.66,.49c.78,.33,1.44,.78,1.98,1.36,.54,.58,.95,1.27,1.23,2.07,.28,.8,.42,1.68,.42,2.63s-.14,1.85-.42,2.65c-.28,.8-.69,1.49-1.23,2.07-.54,.58-1.2,1.03-1.98,1.36-.78,.33-1.67,.49-2.66,.49Zm0-2.17c.61,0,1.14-.13,1.59-.38,.45-.26,.82-.59,1.11-1.01,.29-.42,.5-.89,.64-1.41,.14-.52,.21-1.06,.21-1.6s-.07-1.06-.21-1.59c-.14-.53-.35-1-.64-1.41-.29-.41-.66-.74-1.11-1-.45-.26-.98-.39-1.59-.39s-1.14,.13-1.59,.39c-.45,.26-.82,.59-1.11,1-.29,.41-.5,.88-.64,1.41-.14,.53-.21,1.06-.21,1.59s.07,1.08,.21,1.6c.14,.52,.35,.99,.64,1.41,.29,.42,.66,.75,1.11,1.01,.45,.26,.98,.38,1.59,.38Z"/><path class="cls-6" d="M212.18,261.93h2.6v1.74h.07c.21-.3,.43-.59,.67-.84s.51-.47,.81-.65c.3-.18,.64-.32,1.02-.42,.39-.1,.83-.16,1.33-.16,.75,0,1.46,.17,2.11,.51s1.11,.86,1.39,1.57c.46-.64,1-1.15,1.61-1.52s1.37-.55,2.29-.55c1.32,0,2.34,.32,3.07,.96s1.1,1.72,1.1,3.23v8.6h-2.75v-7.28c0-.5-.02-.95-.05-1.36-.03-.41-.13-.76-.28-1.06-.15-.3-.38-.53-.69-.69-.3-.16-.72-.24-1.25-.24-.93,0-1.61,.29-2.02,.87s-.63,1.4-.63,2.46v7.3h-2.75v-8c0-.87-.16-1.52-.47-1.96-.31-.44-.89-.66-1.72-.66-.35,0-.7,.07-1.03,.22s-.62,.35-.87,.63c-.25,.27-.45,.61-.6,1.01-.15,.4-.23,.86-.23,1.37v7.4h-2.75v-12.46Z"/><path class="cls-6" d="M231.77,261.93h3.01l3.25,9.3h.05l3.16-9.3h2.87l-4.84,13.13c-.22,.56-.45,1.1-.66,1.62-.22,.51-.48,.97-.8,1.36s-.7,.71-1.17,.94-1.06,.35-1.78,.35c-.64,0-1.28-.05-1.9-.14v-2.31c.23,.03,.44,.07,.65,.11,.21,.04,.43,.06,.65,.06,.32,0,.58-.04,.79-.12,.21-.08,.38-.2,.52-.35,.14-.15,.25-.33,.35-.54,.1-.21,.18-.45,.27-.72l.31-.96-4.72-12.41Z"/></g><g><g><path class="cls-6" d="M151.86,317.04c2.86,1.61,.26,7.42-2.79,6.77-1.12-.27-1.26-1.88-.43-2.53-1.05,.64-1.68,1.77-1.94,2.93-.94,5.32,2.41,9.34,7.92,8.51,3.59-.58,5.86-4.3,5.28-7.91,.06,.39,.06,.83-.1,1.22-.15,.44-.71,.62-1.11,.39-.22-.12-.27-.4-.25-.63,.05-.62,.27-1.2,.39-1.8,.41-1.56,.24-3.18-.46-4.63-.63-1.45-1.79-2.69-3.37-3.04-.77-.19-1.58-.18-2.38-.09-.42,.03-.9-.01-1.19-.36-.28-.33-.25-.91,.1-1.17,0,0,.02,.02,.02,.02-.19,.19-.35,.38-.44,.61-.28,.67,.16,1.39,.75,1.7h0Zm-.24,.44c-.79-.4-1.3-1.5-.74-2.27,.17-.24,.4-.4,.65-.5,0,0,.02,.02,.02,.02-.24,.28-.23,.78,0,1.05,.25,.28,.68,.33,1.06,.29,3.34-.59,5.63,1.12,6.54,4.3,.37,1.2,.28,2.5-.04,3.69-.14,.59-.38,1.15-.46,1.74-.08,.46,.28,.61,.66,.53,.59-.2,.58-1,.6-1.53,1.44,3.64-1.1,8.28-5.11,8.89-5.12,.84-9.13-2.46-8.83-7.72,.07-1.85,.9-3.92,2.68-4.7-.67,.68-.53,2.07,.49,2.28,2.55,.47,4.88-4.73,2.49-6.07h0Z"/><path class="cls-6" d="M149.71,321.24c.03-.25-.08-.47-.14-.7-.13-.34-.18-.86,.25-1.05,.26-.18,.33-.57,.4-.87,0,0,.04-.19,.04-.19,.55,.36,.67,1.07,.46,1.64-.19,.51-.58,.85-1,1.17h0Zm0-.01c.56-.66,1.29-1.73,.54-2.5,0,0,.18-.07,.18-.07-.09,.37-.17,.8-.53,1.02-.49,.19-.22,.8-.18,1.2,.01,.12,.03,.26-.02,.36h0Z"/></g><g><path class="cls-6" d="M173.95,319.42c.46-.14,.9-.31,1.33-.53,.43-.22,.81-.48,1.16-.79,.35-.31,.66-.66,.92-1.07h1.04l-3.23,15.09h-1.36l2.67-12.53c-.66,.35-1.34,.6-2.04,.78-.7,.17-1.41,.32-2.15,.43l.28-1.08c.46-.07,.92-.18,1.38-.31Z"/><path class="cls-6" d="M184.04,331.96c-.53-.32-.95-.74-1.26-1.26-.31-.53-.53-1.12-.66-1.79s-.19-1.35-.19-2.04c0-.63,.05-1.32,.16-2.06,.11-.74,.28-1.48,.52-2.21s.53-1.45,.88-2.13c.35-.69,.78-1.3,1.27-1.82,.5-.53,1.06-.95,1.69-1.26,.63-.32,1.34-.47,2.11-.47s1.48,.14,2.03,.42c.55,.28,.98,.66,1.31,1.15,.33,.49,.57,1.05,.71,1.68,.14,.63,.22,1.31,.22,2.03,0,.68-.05,1.4-.16,2.17s-.27,1.54-.5,2.3c-.22,.76-.51,1.49-.87,2.19-.36,.7-.79,1.31-1.29,1.84-.5,.53-1.08,.96-1.74,1.27-.65,.32-1.4,.47-2.23,.47s-1.47-.16-2.01-.47Zm7.31-11.4c-.09-.47-.25-.9-.47-1.27-.23-.37-.54-.67-.94-.89-.39-.22-.9-.34-1.52-.34s-1.17,.16-1.66,.49c-.49,.32-.93,.75-1.31,1.28s-.71,1.13-.98,1.79c-.27,.66-.5,1.34-.67,2.03s-.3,1.35-.39,1.99-.13,1.2-.13,1.67c0,.52,.05,1.02,.14,1.5,.09,.48,.26,.91,.5,1.28,.24,.37,.55,.67,.95,.9,.4,.22,.9,.33,1.5,.33s1.17-.16,1.67-.48,.93-.75,1.31-1.27c.38-.52,.71-1.12,.97-1.79,.27-.67,.49-1.35,.66-2.04,.17-.69,.3-1.36,.38-2s.12-1.21,.12-1.68c0-.52-.04-1.01-.13-1.49Z"/><path class="cls-6" d="M193.91,333.88c.16-.15,.29-.31,.4-.49s.2-.38,.27-.6c.07-.22,.14-.44,.19-.66h-.9l.52-2.28h1.81l-.71,3c-.09,.35-.19,.64-.32,.87s-.28,.44-.46,.62c-.18,.17-.4,.32-.66,.43-.26,.12-.56,.22-.91,.3l.17-.86c.24-.07,.45-.18,.6-.32Z"/><path class="cls-6" d="M202.02,331.96c-.53-.32-.95-.74-1.26-1.26-.31-.53-.53-1.12-.66-1.79s-.19-1.35-.19-2.04c0-.63,.05-1.32,.16-2.06,.11-.74,.28-1.48,.52-2.21s.53-1.45,.88-2.13c.35-.69,.78-1.3,1.27-1.82,.5-.53,1.06-.95,1.69-1.26,.63-.32,1.34-.47,2.11-.47s1.48,.14,2.03,.42c.55,.28,.98,.66,1.31,1.15,.33,.49,.57,1.05,.71,1.68,.14,.63,.22,1.31,.22,2.03,0,.68-.05,1.4-.16,2.17s-.27,1.54-.5,2.3c-.22,.76-.51,1.49-.87,2.19-.36,.7-.79,1.31-1.29,1.84-.5,.53-1.08,.96-1.74,1.27-.65,.32-1.4,.47-2.23,.47s-1.47-.16-2.01-.47Zm7.31-11.4c-.09-.47-.25-.9-.47-1.27-.23-.37-.54-.67-.94-.89-.39-.22-.9-.34-1.52-.34s-1.17,.16-1.66,.49c-.49,.32-.93,.75-1.31,1.28s-.71,1.13-.98,1.79c-.27,.66-.5,1.34-.67,2.03s-.3,1.35-.39,1.99-.13,1.2-.13,1.67c0,.52,.05,1.02,.14,1.5,.09,.48,.26,.91,.5,1.28,.24,.37,.55,.67,.95,.9,.4,.22,.9,.33,1.5,.33s1.17-.16,1.67-.48,.93-.75,1.31-1.27c.38-.52,.71-1.12,.97-1.79,.27-.67,.49-1.35,.66-2.04,.17-.69,.3-1.36,.38-2s.12-1.21,.12-1.68c0-.52-.04-1.01-.13-1.49Z"/><path class="cls-6" d="M214,331.96c-.53-.32-.95-.74-1.26-1.26-.31-.53-.53-1.12-.66-1.79s-.19-1.35-.19-2.04c0-.63,.05-1.32,.16-2.06,.11-.74,.28-1.48,.52-2.21s.53-1.45,.88-2.13c.35-.69,.78-1.3,1.27-1.82,.5-.53,1.06-.95,1.69-1.26,.63-.32,1.34-.47,2.11-.47s1.48,.14,2.03,.42c.55,.28,.98,.66,1.31,1.15,.33,.49,.57,1.05,.71,1.68,.14,.63,.22,1.31,.22,2.03,0,.68-.05,1.4-.16,2.17s-.27,1.54-.5,2.3c-.22,.76-.51,1.49-.87,2.19-.36,.7-.79,1.31-1.29,1.84-.5,.53-1.08,.96-1.74,1.27-.65,.32-1.4,.47-2.23,.47s-1.47-.16-2.01-.47Zm7.31-11.4c-.09-.47-.25-.9-.47-1.27-.23-.37-.54-.67-.94-.89-.39-.22-.9-.34-1.52-.34s-1.17,.16-1.66,.49c-.49,.32-.93,.75-1.31,1.28s-.71,1.13-.98,1.79c-.27,.66-.5,1.34-.67,2.03s-.3,1.35-.39,1.99-.13,1.2-.13,1.67c0,.52,.05,1.02,.14,1.5,.09,.48,.26,.91,.5,1.28,.24,.37,.55,.67,.95,.9,.4,.22,.9,.33,1.5,.33s1.17-.16,1.67-.48,.93-.75,1.31-1.27c.38-.52,.71-1.12,.97-1.79,.27-.67,.49-1.35,.66-2.04,.17-.69,.3-1.36,.38-2s.12-1.21,.12-1.68c0-.52-.04-1.01-.13-1.49Z"/><path class="cls-6" d="M225.99,331.96c-.53-.32-.95-.74-1.26-1.26-.31-.53-.53-1.12-.66-1.79s-.19-1.35-.19-2.04c0-.63,.05-1.32,.16-2.06,.11-.74,.28-1.48,.52-2.21,.24-.73,.53-1.45,.88-2.13,.35-.69,.78-1.3,1.27-1.82,.5-.53,1.06-.95,1.69-1.26,.63-.32,1.34-.47,2.11-.47s1.48,.14,2.03,.42c.55,.28,.98,.66,1.32,1.15,.33,.49,.57,1.05,.71,1.68,.14,.63,.22,1.31,.22,2.03,0,.68-.05,1.4-.16,2.17s-.27,1.54-.5,2.3c-.22,.76-.51,1.49-.87,2.19-.36,.7-.79,1.31-1.29,1.84-.5,.53-1.08,.96-1.74,1.27-.65,.32-1.4,.47-2.23,.47s-1.47-.16-2-.47Zm7.31-11.4c-.09-.47-.25-.9-.47-1.27s-.54-.67-.94-.89c-.4-.22-.9-.34-1.52-.34s-1.17,.16-1.66,.49c-.49,.32-.92,.75-1.3,1.28s-.71,1.13-.98,1.79c-.27,.66-.5,1.34-.67,2.03s-.3,1.35-.39,1.99-.13,1.2-.13,1.67c0,.52,.05,1.02,.14,1.5,.09,.48,.26,.91,.5,1.28,.24,.37,.55,.67,.95,.9,.39,.22,.89,.33,1.5,.33s1.17-.16,1.67-.48,.94-.75,1.32-1.27c.38-.52,.7-1.12,.97-1.79,.26-.67,.48-1.35,.66-2.04,.17-.69,.3-1.36,.38-2,.08-.65,.12-1.21,.12-1.68,0-.52-.04-1.01-.13-1.49Z"/></g></g><g><rect class="cls-4" x="27.5" y="348.65" width="328" height="1"/><rect class="cls-4" x="27.5" y="298.87" width="328" height="1"/></g></svg>